<?xml version="1.0" encoding="utf-8"?>
<!-- Generator: Adobe Illustrator 24.1.2, SVG Export Plug-In . SVG Version: 6.00 Build 0)  -->
<svg version="1.1" id="Слой_1" xmlns="http://www.w3.org/2000/svg" xmlns:xlink="http://www.w3.org/1999/xlink" x="0px" y="0px"
	 viewBox="0 0 486.1 654.7" style="enable-background:new 0 0 486.1 654.7;" xml:space="preserve">
<style type="text/css">
	.st0{fill:#EC9523;}
	.st1{fill:#EDECEA;}
	.st2{fill:#FCB3A0;}
	.st3{fill:#E48A75;}
	.st4{fill:#F78282;}
	.st5{fill:#754C24;}
	.st6{fill:#F3F2EF;}
	.st7{fill:#BEB5B0;}
	.st8{fill:#470014;}
	.st9{opacity:0.82;fill:#FF3552;enable-background:new    ;}
	.st10{fill:#FFFFFF;}
	.st11{fill:#42210B;}
	.st12{opacity:0.39;fill:#A5D7E4;}
	.st13{fill:#EB5125;}
	.st14{fill:#F6BC47;}
	.st15{fill:#66ADC1;}
</style>
<path class="st0" d="M172.8,431.1h-84c-32.1,0-58.1-26-58.1-58.1V249.7c0-32.1,26-58.1,58.1-58.1h84c32.1,0,58.1,26,58.1,58.1v123.3
	C230.9,405,204.9,431.1,172.8,431.1z"/>
<path class="st1" d="M294.6,350L294.6,350c-9.3,6.4-22,4.1-28.4-5.2l-51.9-75.2c-6.4-9.3-4.1-22,5.2-28.4l0,0
	c9.3-6.4,22-4.1,28.4,5.2l51.9,75.2C306.2,330.8,303.8,343.6,294.6,350z"/>
<path class="st1" d="M380.7,280.1L380.7,280.1c5.3,9.9,1.6,22.3-8.4,27.6l-80.6,43.1c-9.9,5.3-22.3,1.6-27.6-8.4l0,0
	c-5.3-9.9-1.6-22.3,8.4-27.6l80.6-43.1C363,266.4,375.4,270.2,380.7,280.1z"/>
<circle class="st2" cx="96.3" cy="134.1" r="15.5"/>
<circle class="st3" cx="94.8" cy="134.6" r="9"/>
<rect x="96.8" y="75.6" class="st2" width="103" height="211"/>
<path class="st4" d="M173.8,156.6h-8.7c-4,0-7.3-3.3-7.3-7.3v-21.4c0-4,3.3-7.3,7.3-7.3h1.5c4,0,7.3,3.3,7.3,7.3L173.8,156.6
	L173.8,156.6z"/>
<ellipse cx="145.8" cy="117.1" rx="11" ry="10.5"/>
<ellipse cx="183.8" cy="117.1" rx="11" ry="10.5"/>
<ellipse class="st4" cx="174.3" cy="144.6" rx="11.5" ry="12"/>
<path class="st5" d="M154.6,110.4l-22.9,2.4c-4.4,0.5-8.3-2.7-8.8-7.1l0,0c-0.5-4.4,2.7-8.3,7.1-8.8l22.9-2.4
	c4.4-0.5,8.3,2.7,8.8,7.1l0,0C162.2,106,159,109.9,154.6,110.4z"/>
<path class="st5" d="M195.2,111.5l-22.9-1.8c-4.4-0.3-7.7-4.2-7.4-8.6l0,0c0.3-4.4,4.2-7.7,8.6-7.4l22.9,1.8
	c4.4,0.3,7.7,4.2,7.4,8.6l0,0C203.4,108.6,199.6,111.9,195.2,111.5z"/>
<ellipse class="st5" cx="101.3" cy="64.6" rx="25.5" ry="22"/>
<ellipse class="st5" cx="142.3" cy="62.6" rx="25.5" ry="22"/>
<ellipse class="st5" cx="179.3" cy="64.6" rx="25.5" ry="22"/>
<ellipse class="st5" cx="191.3" cy="57.6" rx="25.5" ry="22"/>
<path class="st5" d="M96.8,75.6h28.1c-4.6-4.3-11.3-7-18.6-7c-14.1,0-25.5,9.9-25.5,22c0,9.3,6.6,17.2,16,20.4V75.6z"/>
<path class="st5" d="M199.8,88.7c3.1-3.7,5-8.2,5-13.1c0-12.1-11.4-22-25.5-22s-25.5,9.9-25.5,22h46V88.7z"/>
<ellipse class="st5" cx="123.3" cy="42.6" rx="25.5" ry="22"/>
<ellipse class="st5" cx="156.3" cy="42.6" rx="25.5" ry="22"/>
<ellipse class="st5" cx="156.3" cy="33.6" rx="25.5" ry="22"/>
<ellipse class="st5" cx="184.3" cy="42.6" rx="25.5" ry="22"/>
<path class="st5" d="M105.8,118.6L105.8,118.6c-6.1,0-11-4.9-11-11v-28c0-6.1,4.9-11,11-11l0,0c6.1,0,11,4.9,11,11v28
	C116.8,113.7,111.9,118.6,105.8,118.6z"/>
<rect x="153.8" y="431.8" transform="matrix(0.9978 -6.659716e-02 6.659716e-02 0.9978 -34.2308 12.5627)" class="st6" width="35" height="175.9"/>
<path class="st7" d="M158.8,596C158.9,596,158.9,596,158.8,596l0.5,4.4c1.1,0.7,3.4,2.2,6.8,3.3c2,0.7,6.8,2.3,12.7,1.6
	c7.9-0.9,13.2-5.4,15.2-7.3c7.9,6.1,15.8,12.2,23.8,18.3c8.7,8.7,8.7,22.7,0,31.4l0,0c-8.7,8.7-22.7,8.7-31.4,0L162,623.3
	c-1.2-1.2-2.3-2.6-3.2-4L158.8,596L158.8,596z"/>
<rect x="27.8" y="502.5" transform="matrix(6.659732e-02 -0.9978 0.9978 6.659732e-02 -410.7652 600.8121)" class="st6" width="175.9" height="35"/>
<path class="st1" d="M90.7,386.1c-0.2,0-0.3,0-0.5,0v39.1c0,9.9,8,17.9,17.9,17.9h69.3c9.9,0,17.9-8,17.9-17.9v-39.1H90.7z"/>
<path class="st8" d="M127.7,187c-0.1,1.4-0.2,2.8-0.2,4.2c0,21.6,14.7,39.2,32.9,39.2s32.9-17.5,32.9-39.2c0-2-0.1-4-0.4-5.9
	L127.7,187z"/>
<path class="st9" d="M184.6,217.6c-1.2-7.9-7.1-14-14.3-14c-3.4,0-6.5,1.4-9,3.7c-2.3-1.7-5-2.7-8-2.7c-8,0-14.5,7.2-14.5,16
	c0,0,0,0.1,0,0.2c5.8,6,13.3,9.6,21.5,9.6C169.9,230.4,178.6,225.4,184.6,217.6z"/>
<path class="st10" d="M193.2,191.2c0-2-0.1-4-0.4-5.9l-65.1,1.7c-0.1,1.4-0.2,2.8-0.2,4.2c0,1.7,0.1,3.3,0.3,4.9
	c10.6,0.5,22,0.6,33.9,0.4c11-0.3,21.5-0.8,31.4-1.7C193.1,193.4,193.2,192.2,193.2,191.2z"/>
<path class="st10" d="M210.2,189.4"/>
<path class="st7" d="M128.1,596.3C128,596.3,128,596.3,128.1,596.3l-0.5,4.4c-1.1,0.7-3.4,2.2-6.8,3.3c-2,0.7-6.8,2.3-12.7,1.6
	c-7.9-0.9-13.2-5.4-15.2-7.3c-7.9,6.1-15.8,12.2-23.8,18.3c-8.7,8.7-8.7,22.7,0,31.4l0,0c8.7,8.7,22.7,8.7,31.4,0l24.4-24.4
	c1.2-1.2,2.3-2.6,3.2-4V596.3L128.1,596.3z"/>
<path class="st11" d="M79.5,584.5"/>
<path class="st6" d="M210.2,218c-13.1,16.7-33.5,27.4-56.4,27.4h-8.7c-23.3,0-44.1-11.2-57.2-28.4c-33.6,3-60.1,39.6-60.1,84.6
	c0,46.8,28.9,84.8,64.5,84.8h107c35.6,0,64.5-37.9,64.5-84.8C263.8,259.5,240.6,224.7,210.2,218z"/>
<path class="st2" d="M117.3,399.9L117.3,399.9c-4.1,7.2-13.3,9.6-20.5,5.5l-77-44.5c-7.2-4.1-9.6-13.3-5.5-20.5l0,0
	c4.1-7.2,13.3-9.6,20.5-5.5l77,44.5C119,383.6,121.5,392.8,117.3,399.9z"/>
<path class="st2" d="M22.8,359.6L22.8,359.6c-7.9-2.5-12.3-10.9-9.9-18.8l26.4-84.9c2.5-7.9,10.9-12.3,18.8-9.9l0,0
	c7.9,2.5,12.3,10.9,9.9,18.8l-26.4,84.9C39.1,357.7,30.7,362.1,22.8,359.6z"/>
<path class="st1" d="M18.2,366.5L18.2,366.5C7.6,362.7,2,351.1,5.8,340.4l30.6-86.1c3.8-10.6,15.4-16.2,26.1-12.4l0,0
	c10.6,3.8,16.2,15.4,12.4,26.1l-30.6,86.1C40.5,364.7,28.8,370.3,18.2,366.5z"/>
<path class="st1" d="M153.8,7.9h-8.7c-39.6,0-71.7,32.1-71.7,71.7v94.1c0,39.6,32.1,71.7,71.7,71.7h8.7c39.6,0,71.7-32.1,71.7-71.7
	V79.6C225.5,40,193.4,7.9,153.8,7.9z M211.6,181.6c0,26-21.1,47.1-47.1,47.1h-5.5c-26,0-47.1-21.1-47.1-47.1v-58.8
	c0-26,21.1-47.1,47.1-47.1h5.5c26,0,47.1,21.1,47.1,47.1V181.6z"/>
<path class="st12" d="M164.4,228.7h-5.5c-26,0-47.1-21.1-47.1-47.1v-58.8c0-26,21.1-47.1,47.1-47.1h5.5c26,0,47.1,21.1,47.1,47.1
	v58.8C211.6,207.6,190.5,228.7,164.4,228.7z"/>
<path class="st7" d="M191.8,326.7h-55.2c-7.7,0-13.9-6.2-13.9-13.9v-27.8c0-7.7,6.2-13.9,13.9-13.9h55.2c7.7,0,13.9,6.2,13.9,13.9
	v27.8C205.8,320.4,199.5,326.7,191.8,326.7z"/>
<circle class="st13" cx="187.2" cy="288.6" r="9.3"/>
<circle class="st14" cx="145.8" cy="291.4" r="6.5"/>
<circle class="st15" cx="164.3" cy="291.4" r="6.5"/>
<path class="st0" d="M189.9,319.5h-51.2c-1.6,0-2.9-1.3-2.9-2.9v-4.4c0-1.6,1.3-2.9,2.9-2.9h51.2c1.6,0,2.9,1.3,2.9,2.9v4.4
	C192.8,318.2,191.5,319.5,189.9,319.5z"/>
<path class="st7" d="M202.9,282.8l-8.1-8.1c14.1-14,28.1-28,42.2-42c1.3,1.2,2.7,2.6,4,4.2c1.3,1.5,2.5,2.9,3.5,4.3
	C230.7,255,216.8,268.9,202.9,282.8z"/>
<path class="st7" d="M238,369.4c1.4-1.4,2.8-2.9,4.2-4.6c1.2-1.4,2.3-2.8,3.3-4.2c-14.2-14.2-28.4-28.4-42.6-42.7l-8.1,8.1
	C209.2,340.5,223.6,355,238,369.4z"/>
<path class="st7" d="M124.7,281.7l8.1-8.1c-18.3-18.2-36.6-36.5-54.8-54.7c-1.7,0.5-3.6,1.2-5.6,2c-2.1,0.9-3.9,1.8-5.5,2.7
	C86.1,243,105.4,262.4,124.7,281.7z"/>
<rect x="103.1" y="310.5" transform="matrix(0.7071 0.7071 -0.7071 0.7071 271.4395 22.3032)" class="st7" width="11.5" height="56.5"/>
<path class="st1" d="M125.2,395.5L125.2,395.5c-4.9,10.1-17.2,14.3-27.3,9.4l-82.1-40.1c-10.1-4.9-14.3-17.2-9.4-27.3l0,0
	c4.9-10.1,17.2-14.3,27.3-9.4l82.1,40.1C126,373.1,130.2,385.3,125.2,395.5z"/>
<circle class="st7" cx="113" cy="389.5" r="28.2"/>
<path class="st7" d="M-183.9,463.6"/>
<path class="st13" d="M67,389.7c-2.1-1-4.2-2-6.3-3.1c0.5-4.8,2-12.9,6.8-21.5c4-7,8.7-11.8,12.1-14.7c2.2,1.1,4.3,2.1,6.5,3.2
	c-3.5,3.3-8.3,8.6-12.4,16.2C69.6,377.7,67.8,384.9,67,389.7z"/>
<path class="st13" d="M136.3,475.4c-0.2,2.3-0.3,4.6-0.5,7c-5,1.4-13,2.9-22.5,1.6c-4.9-0.7-9.1-2-12.5-3.2c0.2-2.6,0.3-5.1,0.5-7.7
	c3.7,1.4,8.4,2.7,14,3.4C124,477.4,131.3,476.5,136.3,475.4z"/>
<path class="st13" d="M185.7,472.5c0.2,2.4,0.3,4.7,0.5,7.1c-4.7,2.1-12.2,4.8-21.7,5.1c-5.1,0.1-9.5-0.5-13.1-1.2
	c-0.2-2.5-0.3-5-0.5-7.5c3.9,0.7,8.8,1.3,14.4,1C173.9,476.5,180.9,474.4,185.7,472.5z"/>
<path class="st13" d="M346,321.8c-2,1.1-4.1,2.3-6.1,3.4c-3.7-3.1-9.5-8.9-13.8-17.8c-3.5-7.3-4.8-13.9-5.2-18.3
	c2.1-1.2,4.2-2.4,6.3-3.5c0.7,4.8,2.4,11.8,6.3,19.4C337.5,312.8,342.4,318.4,346,321.8z"/>
<path class="st0" d="M408.8,489.5L408.8,489.5c-2.9,0.7-5.8-1-6.6-3.9L292.2,52c-0.7-2.9,1-5.8,3.9-6.6v0c2.9-0.7,5.8,1,6.6,3.9
	l110,433.6C413.4,485.8,411.7,488.8,408.8,489.5z"/>
<ellipse transform="matrix(0.5851 -0.8109 0.8109 0.5851 -79.4027 417.8504)" class="st7" cx="368.7" cy="286.5" rx="28.2" ry="28.2"/>
<path class="st6" d="M479.2,124.3c-20.3,7.2-37.2,9.5-48.8,10.2c-36.2,2.3-56.1-7.9-77.5,4.2c-11.3,6.4-18,16.2-21.7,23.1
	c-9.6-37.8-19.2-75.6-28.8-113.4c4.4-3.8,11.8-9.8,22.3-14.5c29.6-13.5,51.1-3.1,89.9-11.1c8.3-1.7,20.9-5,35.8-11.9
	C460,48.7,469.6,86.5,479.2,124.3z"/>
</svg>
