<?xml version="1.0" encoding="utf-8"?>
<!-- Generator: Adobe Illustrator 24.1.2, SVG Export Plug-In . SVG Version: 6.00 Build 0)  -->
<svg version="1.1" id="Слой_1" xmlns="http://www.w3.org/2000/svg" xmlns:xlink="http://www.w3.org/1999/xlink" x="0px" y="0px"
	 viewBox="0 0 673.2 836.9" style="enable-background:new 0 0 673.2 836.9;" xml:space="preserve">
<style type="text/css">
	.st0{fill:#F9E8EB;}
	.st1{fill:#FCB3A0;}
	.st2{fill:#51000C;}
	.st3{fill:#B25D00;}
	.st4{fill:#E244CC;}
	.st5{fill:#EF26EF;}
	.st6{fill:#F78282;}
	.st7{fill:#470014;}
	.st8{opacity:0.82;fill:#FF3552;enable-background:new    ;}
	.st9{fill:#FFFFFF;}
	.st10{fill:#42210B;}
	.st11{fill:#754C24;}
	.st12{fill:#EFB82E;}
</style>
<ellipse transform="matrix(0.5292 -0.8485 0.8485 0.5292 -56.7954 418.714)" class="st0" cx="348.9" cy="260.5" rx="101.2" ry="56.1"/>
<ellipse transform="matrix(0.8485 -0.5292 0.5292 0.8485 -141.8616 227.9471)" class="st0" cx="327.2" cy="361.8" rx="38.6" ry="69.7"/>
<ellipse transform="matrix(0.8485 -0.5292 0.5292 0.8485 -110.447 122.044)" class="st0" cx="157.9" cy="253.9" rx="56.1" ry="101.2"/>
<ellipse transform="matrix(0.5292 -0.8485 0.8485 0.5292 -216.7694 319.6367)" class="st0" cx="179.6" cy="355.1" rx="69.7" ry="38.6"/>
<path class="st1" d="M312.9,563.5L312.9,563.5c7-1.5,11.4-8.4,9.8-15.3l-35.2-162.1c-1.5-7-8.4-11.4-15.3-9.8l0,0
	c-7,1.5-11.4,8.4-9.8,15.3l35.2,162.1C299.1,560.6,305.9,565,312.9,563.5z"/>
<path class="st2" d="M298.8,564.3c0.6,1.1,1.3,2.2,2.1,3.2l16.4,19.5c5.8,7,15.2,7,21.1,0c5.8-7,5.8-18.2,0-25.1
	c-5.4-4.9-10.7-9.8-16-14.6c-1.3,1.5-4.9,5.1-10.2,5.8c-3.1,0.4-5.8-0.5-8.5-1.3c-3.1-1-5.6-2.2-7.3-3.3
	C297.3,553.8,298.1,559,298.8,564.3z"/>
<path class="st1" d="M350.7,352.7L350.7,352.7c-6,3.9-13.9,2.2-17.8-3.8l-20.7-32c-3.9-6-2.2-13.9,3.8-17.8l0,0
	c6-3.9,13.9-2.2,17.8,3.8l20.7,32C358.4,340.9,356.7,348.9,350.7,352.7z"/>
<path class="st1" d="M333,349.1L333,349.1c-4.1-5.8-2.7-13.8,3.1-17.9l40.5-28.5c5.8-4.1,13.8-2.7,17.9,3.1l0,0
	c4.1,5.8,2.7,13.8-3.1,17.9l-40.5,28.5C345.1,356.3,337.1,354.9,333,349.1z"/>
<path class="st1" d="M195.9,563.5L195.9,563.5c-7-1.5-11.4-8.4-9.8-15.3l35.2-162.1c1.5-7,8.4-11.4,15.3-9.8l0,0
	c7,1.5,11.4,8.4,9.8,15.3l-35.2,162.1C209.7,560.6,202.9,565,195.9,563.5z"/>
<path class="st3" d="M335.4,299.4L335.4,299.4c-5.5,0-10-4.5-10-10V157.7c0-5.5,4.5-10,10-10l0,0c5.5,0,10,4.5,10,10v131.6
	C345.4,294.9,340.9,299.4,335.4,299.4z"/>
<path class="st3" d="M315.3,300.5L315.3,300.5c-5.5,0-10-4.5-10-10V145.7c0-5.5,4.5-10,10-10l0,0c5.5,0,10,4.5,10,10v144.8
	C325.4,296,320.9,300.5,315.3,300.5z"/>
<path class="st4" d="M319.3,334l29.6-20.6l-25.4-36.7c-5.7-8.2-16.9-10.2-25.1-4.5l0,0c-8.2,5.7-10.2,16.9-4.5,25.1L319.3,334z"/>
<path class="st5" d="M335.7,418.6l-18.2-42c-0.9-2-2.2-3.8-3.8-5.1V365H186.6v5.5c-1.6,1.4-2.9,3.1-3.8,5.1l-18.2,42
	c-3.1,7.1,0.2,15.4,7.3,18.5s15.4-0.2,18.5-7.3l2-4.6c0.5,7.3,6.6,13.1,14,13.1h1.6c7.8,0,14.1-6.3,14.1-14.1v-0.9
	c0,7.8,6.3,14.1,14.1,14.1s14.1-6.3,14.1-14.1v0.9c0,7.8,6.3,14.1,14.1,14.1s14.1-6.3,14.1-14.1c0,7.8,6.3,14.1,14.1,14.1h2.1
	c6.8,0,12.5-4.9,13.8-11.3l1.7,3.9c3.1,7.1,11.4,10.4,18.5,7.3S338.8,425.7,335.7,418.6z"/>
<rect x="210.5" y="132.7" class="st1" width="103" height="211"/>
<path class="st5" d="M313.5,364.9h-127v-81c5.5-1.4,14.2-3.2,24.9-3.7c32.3-1.7,39.3,10.3,61.3,5.6c18.6-4,31.2-16.3,38.1-10.5
	c1.7,1.5,2.4,3.5,2.8,4.9C313.6,308.3,313.6,336.6,313.5,364.9z"/>
<ellipse class="st6" cx="267.9" cy="203.5" rx="10" ry="6.7"/>
<path class="st7" d="M233.9,228.5c-0.1,1.1-0.2,2.2-0.2,3.4c0,17.3,11.8,31.4,26.3,31.4c14.6,0,26.3-14,26.3-31.4
	c0-1.6-0.1-3.2-0.3-4.7L233.9,228.5z"/>
<path class="st8" d="M279.4,253c-1-6.3-5.7-11.2-11.4-11.2c-2.7,0-5.2,1.1-7.2,3c-1.8-1.4-4-2.2-6.4-2.2c-6.4,0-11.6,5.8-11.6,12.8
	c0,0,0,0.1,0,0.2c4.6,4.8,10.6,7.7,17.2,7.7C267.6,263.3,274.6,259.3,279.4,253z"/>
<path class="st9" d="M286.3,231.9c0-1.6-0.1-3.2-0.3-4.7l-52.1,1.4c-0.1,1.1-0.2,2.2-0.2,3.4c0,1.4,0.1,2.6,0.2,3.9
	c8.5,0.4,17.6,0.5,27.1,0.3c8.8-0.2,17.2-0.6,25.1-1.4C286.2,233.7,286.3,232.7,286.3,231.9z"/>
<path class="st9" d="M323.9,246.5"/>
<path class="st2" d="M212.4,548.5c-1.7,1-4.1,2.3-7.3,3.3c-2.7,0.8-5.4,1.7-8.5,1.3c-5.3-0.7-8.9-4.3-10.2-5.8
	c-5.3,4.9-10.6,9.8-16,14.6c-5.8,7-5.8,18.2,0,25.1s15.2,7,21.1,0l16.4-19.5c0.8-1,1.5-2.1,2.1-3.2
	C210.8,559,211.6,553.8,212.4,548.5z"/>
<path class="st10" d="M193.2,641.6"/>
<path class="st11" d="M276.5,74.3"/>
<path class="st11" d="M182.3,128.2"/>
<path class="st3" d="M318.5,143.3c-7.7-35.9-40.9-62.9-80.7-62.9c-21.4,0-40.9,7.8-55.5,20.6c0,0.1,0,0.1,0,0.2
	c0,30.6,36.9,55.5,82.5,55.5C285.3,156.7,304.1,151.6,318.5,143.3z"/>
<path class="st3" d="M218.8,82.1c-35.6,7.7-62.2,39.3-62.2,77.1c0,37.9,26.7,69.5,62.2,77.1V82.1z"/>
<path class="st3" d="M324.3,101.1L324.3,101.1c-0.2-0.3-0.4-0.5-0.6-0.7c-0.2-0.3-0.5-0.5-0.7-0.8c-0.5-0.5-0.9-1-1.4-1.4
	c-0.2-0.2-0.5-0.4-0.7-0.7c-0.5-0.5-1-1-1.5-1.5c-0.2-0.2-0.4-0.3-0.6-0.5c-0.6-0.5-1.1-1-1.7-1.5c-0.1-0.1-0.2-0.2-0.3-0.3
	c-4.4-3.6-9.1-6.6-14.1-8.8c0,0-0.1,0-0.1-0.1c-0.8-0.3-1.6-0.7-2.4-1c-0.1,0-0.2-0.1-0.3-0.1c-0.8-0.3-1.5-0.6-2.3-0.8
	c-0.1,0-0.3-0.1-0.4-0.1c-0.8-0.2-1.5-0.5-2.3-0.7c-0.1,0-0.2-0.1-0.3-0.1l0,0c-4.4-1.2-8.9-1.8-13.6-1.8c-22.6,0-42.5,14.3-54,35.9
	h86.7v111.8c19-13.8,31.8-39.3,31.8-68.4C345.4,136.5,337.3,115.6,324.3,101.1z"/>
<path class="st1" d="M144.1,355.8L144.1,355.8c-5.7-4.3-6.8-12.4-2.5-18l22.9-30.5c4.3-5.7,12.4-6.8,18-2.5l0,0
	c5.7,4.3,6.8,12.4,2.5,18l-22.9,30.5C157.9,358.9,149.8,360.1,144.1,355.8z"/>
<rect x="303.8" y="112" class="st3" width="14.1" height="17.6"/>
<path class="st4" d="M182.6,333L153,312.5l25.4-36.7c5.7-8.2,16.9-10.2,25.1-4.5l0,0c8.2,5.7,10.2,16.9,4.5,25.1L182.6,333z"/>
<path class="st3" d="M167,298.9L167,298.9c-5.8,0-10.5-4.5-10.5-10V166.7c0-5.5,4.7-10,10.5-10l0,0c5.8,0,10.5,4.5,10.5,10v122.2
	C177.7,294.4,173,298.9,167,298.9z"/>
<path class="st3" d="M186.6,301.5L186.6,301.5c-5.5,0-10-4.5-10-10V169.3c0-5.5,4.5-10,10-10l0,0c5.5,0,10,4.5,10,10v122.2
	C196.6,297,192.1,301.5,186.6,301.5z"/>
<path class="st3" d="M208.8,301.5h-3.6c-5.5,0-10-4.5-10-10V169.3c0-5.5,4.5-10,10-10h3.6c5.5,0,10,4.5,10,10v122.2
	C218.8,297,214.3,301.5,208.8,301.5z"/>
<path class="st4" d="M314.1,248.4c-13.7,12-27.4,24-41.2,36c-18.1-7.6-36.1-15.2-54.2-22.8c0,7,0,14,0,20.9
	c18.3,2.8,36.5,5.7,54.8,8.5c17.7-4.9,35.5-9.7,53.2-14.6C322.5,267.1,318.3,257.7,314.1,248.4z"/>
<path d="M250.8,191.3c-1.4-1.1-6.1-4.3-12.8-4.4c-6.9,0-11.6,3.3-13,4.4c-1.3,0.2-1.7-0.1-1.8-0.3c-0.7-0.8,0-2.9,1.8-5.3
	c0.5-0.6,5.2-7,13.4-6.8c7.6,0.2,11.9,6,12.5,6.8c1.9,2.3,2.6,4.4,1.9,5.2C252.5,191,252.1,191.5,250.8,191.3z"/>
<path d="M306.9,191.3c-1.4-1.1-6.1-4.3-12.8-4.4c-6.9,0-11.6,3.3-13,4.4c-1.3,0.2-1.7-0.1-1.8-0.3c-0.7-0.8,0-2.9,1.8-5.3
	c0.5-0.6,5.2-7,13.4-6.8c7.6,0.2,11.9,6,12.5,6.8c1.9,2.3,2.6,4.4,1.9,5.2C308.6,191,308.2,191.5,306.9,191.3z"/>
<path class="st1" d="M141.4,337.9L141.4,337.9c4.1-5.8,12.1-7.3,17.9-3.2l31.3,21.7c5.8,4.1,7.3,12.1,3.2,17.9l0,0
	c-4.1,5.8-12.1,7.3-17.9,3.2l-31.3-21.7C138.8,351.8,137.4,343.7,141.4,337.9z"/>
<circle class="st1" cx="189.6" cy="371.3" r="16.7"/>
<path class="st0" d="M212.4,548.5c-0.9,0.8-6.7,5.8-15,4.7c-6.1-0.9-9.9-4.7-11-5.9c3.7-17.3,7.5-34.6,11.2-52
	c2.4,1.5,6.3,3.6,11.6,4.6c5.9,1.2,10.8,0.6,13.7,0C219.4,516.1,215.9,532.3,212.4,548.5z"/>
<path class="st0" d="M322.4,547.3c-1.3,1.5-4.1,4.3-8.6,5.5c-9.1,2.5-16.6-3.7-17.4-4.3c-3.7-17.2-7.4-34.5-11.2-51.7
	c2.6,0.9,8.5,2.6,15.7,1c4.5-1,7.8-2.9,9.9-4.4C314.7,511.3,318.5,529.3,322.4,547.3z"/>
<path class="st12" d="M411.4,211.6l11.4-9.4l-14.4-3.3l-5.4-13.7l-7.6,12.6l-14.7,0.9l9.7,11.1l-3.7,14.3l10.7-4.5l-12.3,147.3
	c-0.1,1.5,1,2.8,2.5,3h0c1.5,0.1,2.8-1,3-2.5L402.9,220l9.8,6.3L411.4,211.6z"/>
<circle class="st1" cx="391.8" cy="307.1" r="16.7"/>
<path class="st12" d="M330.7,109.3c-21.9,3.1-46.9,5.3-74.6,5.5c-30.6,0.2-58-2.1-81.6-5.4c1.1-1.2,2.1-2.5,3.2-3.7
	c24.1,1.9,50.3,3.1,78.1,3c25.7-0.1,49.9-1.2,72.3-3C328.9,106.8,329.8,108.1,330.7,109.3z"/>
<polygon class="st12" points="268.5,123.5 259.9,118.9 251.3,123.4 253,113.8 246.1,107 255.7,105.6 260.1,96.9 264.3,105.7 
	273.9,107.1 266.9,113.9 "/>
</svg>
