<?xml version="1.0" encoding="utf-8"?>
<!-- Generator: Adobe Illustrator 24.1.2, SVG Export Plug-In . SVG Version: 6.00 Build 0)  -->
<svg version="1.1" id="Слой_1" xmlns="http://www.w3.org/2000/svg" xmlns:xlink="http://www.w3.org/1999/xlink" x="0px" y="0px"
	 viewBox="0 0 387.6 654.8" style="enable-background:new 0 0 387.6 654.8;" xml:space="preserve">
<style type="text/css">
	.st0{fill:#FCB3A0;}
	.st1{fill:#E48A75;}
	.st2{fill:#F78282;}
	.st3{fill:#754C24;}
	.st4{fill:#4D4D4D;}
	.st5{fill:#42210B;}
	.st6{fill:#C7B299;}
	.st7{fill:#998675;}
	.st8{fill:#333333;}
	.st9{fill:#470014;}
	.st10{opacity:0.82;fill:#FF3552;enable-background:new    ;}
	.st11{fill:#FFFFFF;}
</style>
<circle class="st0" cx="93.6" cy="134.2" r="15.5"/>
<circle class="st1" cx="92.1" cy="134.7" r="9"/>
<rect x="94.1" y="75.7" class="st0" width="103" height="211"/>
<path class="st2" d="M171.1,156.7h-8.7c-4,0-7.3-3.3-7.3-7.3V128c0-4,3.3-7.3,7.3-7.3h1.5c4,0,7.3,3.3,7.3,7.3L171.1,156.7
	L171.1,156.7z"/>
<ellipse cx="143.1" cy="117.2" rx="11" ry="10.5"/>
<ellipse cx="181.1" cy="117.2" rx="11" ry="10.5"/>
<ellipse class="st2" cx="171.6" cy="144.7" rx="11.5" ry="12"/>
<path class="st3" d="M151.9,110.5l-22.9,2.4c-4.4,0.5-8.3-2.7-8.8-7.1l0,0c-0.5-4.4,2.7-8.3,7.1-8.8l22.9-2.4
	c4.4-0.5,8.3,2.7,8.8,7.1l0,0C159.5,106.1,156.3,110,151.9,110.5z"/>
<path class="st3" d="M192.5,111.6l-22.9-1.8c-4.4-0.3-7.7-4.2-7.4-8.6l0,0c0.3-4.4,4.2-7.7,8.6-7.4l22.9,1.8
	c4.4,0.3,7.7,4.2,7.4,8.6l0,0C200.7,108.7,196.9,112,192.5,111.6z"/>
<ellipse class="st3" cx="98.6" cy="64.7" rx="25.5" ry="22"/>
<ellipse class="st3" cx="139.6" cy="62.7" rx="25.5" ry="22"/>
<ellipse class="st3" cx="176.6" cy="64.7" rx="25.5" ry="22"/>
<ellipse class="st3" cx="188.6" cy="57.7" rx="25.5" ry="22"/>
<path class="st3" d="M94.1,75.7h28.1c-4.6-4.3-11.3-7-18.6-7c-14.1,0-25.5,9.9-25.5,22c0,9.3,6.6,17.2,16,20.4V75.7z"/>
<path class="st3" d="M197.1,88.8c3.1-3.7,5-8.2,5-13.1c0-12.1-11.4-22-25.5-22s-25.5,9.9-25.5,22h46V88.8z"/>
<ellipse class="st3" cx="120.6" cy="42.7" rx="25.5" ry="22"/>
<ellipse class="st3" cx="153.6" cy="42.7" rx="25.5" ry="22"/>
<ellipse class="st3" cx="153.6" cy="33.7" rx="25.5" ry="22"/>
<ellipse class="st3" cx="181.6" cy="42.7" rx="25.5" ry="22"/>
<path class="st3" d="M103.1,118.7L103.1,118.7c-6.1,0-11-4.9-11-11v-28c0-6.1,4.9-11,11-11l0,0c6.1,0,11,4.9,11,11v28
	C114.1,113.8,109.2,118.7,103.1,118.7z"/>
<rect x="151.1" y="431.8" transform="matrix(0.9978 -6.659866e-02 6.659866e-02 0.9978 -34.2387 12.382)" class="st4" width="35" height="175.9"/>
<path class="st5" d="M156.1,596.1C156.2,596.1,156.2,596.1,156.1,596.1l0.5,4.4c1.1,0.7,3.4,2.2,6.8,3.3c2,0.7,6.8,2.3,12.7,1.6
	c7.9-0.9,13.2-5.4,15.2-7.3c7.9,6.1,15.8,12.2,23.8,18.3c8.7,8.7,8.7,22.7,0,31.4l0,0c-8.7,8.7-22.7,8.7-31.4,0l-24.4-24.4
	c-1.2-1.2-2.3-2.6-3.2-4L156.1,596.1L156.1,596.1z"/>
<path class="st0" d="M268.4,361.1L268.4,361.1c-7.9,2.4-16.3-2.1-18.7-10L223.9,266c-2.4-7.9,2.1-16.3,10-18.7l0,0
	c7.9-2.4,16.3,2.1,18.7,10l25.8,85.1C280.8,350.3,276.3,358.7,268.4,361.1z"/>
<g>
	<path class="st6" d="M275.2,306l-11.7-38.8c-5.2-17.2-19.1-28.2-30.9-24.6l0,0c-11.9,3.6-17.3,20.5-12.1,37.6l11.7,38.8L275.2,306z
		"/>
</g>
<path class="st0" d="M369.3,341.4L369.3,341.4c0.6,8.3-5.6,15.4-13.9,16l-88.7,6.4c-8.3,0.6-15.4-5.6-16-13.9l0,0
	c-0.6-8.3,5.6-15.4,13.9-16l88.7-6.4C361.5,326.9,368.7,333.2,369.3,341.4z"/>
<g>
	<path class="st7" d="M197.1,216.8v13.1l-39.3,56c0,0-0.1,0-0.1,0l-63.6-56v-13.1h-4.5c-35.6,0-64.5,37.9-64.5,84.8l0,0
		c0,46.8,28.9,84.8,64.5,84.8h107c35.6,0,64.5-37.9,64.5-84.8l0,0C261.1,254.9,232.5,217.1,197.1,216.8z"/>
</g>
<rect x="25.1" y="502.6" transform="matrix(6.659866e-02 -0.9978 0.9978 6.659866e-02 -413.4491 598.1683)" class="st4" width="175.9" height="35"/>
<path class="st8" d="M88,386.2c-0.2,0-0.3,0-0.5,0v39.1c0,9.9,8,17.9,17.9,17.9h69.3c9.9,0,17.9-8,17.9-17.9v-39.1H88z"/>
<path class="st0" d="M20.1,359.7L20.1,359.7c-7.9-2.5-12.3-10.9-9.9-18.8L36.6,256c2.5-7.9,10.9-12.3,18.8-9.9l0,0
	c7.9,2.5,12.3,10.9,9.9,18.8l-26.4,84.9C36.4,357.8,28,362.2,20.1,359.7z"/>
<g>
	<path class="st6" d="M56.6,317.9l12-38.7c5.3-17.1,0-34-11.8-37.7l0,0c-11.9-3.7-25.8,7.2-31.1,24.3l-12,38.7L56.6,317.9z"/>
</g>
<path class="st0" d="M114.6,400L114.6,400c-4.1,7.2-13.3,9.6-20.5,5.5l-77-44.5c-7.2-4.1-9.6-13.3-5.5-20.5l0,0
	c4.1-7.2,13.3-9.6,20.5-5.5l77,44.5C116.3,383.7,118.8,392.9,114.6,400z"/>
<path class="st9" d="M125,187.1c-0.1,1.4-0.2,2.8-0.2,4.2c0,21.6,14.7,39.2,32.9,39.2s32.9-17.5,32.9-39.2c0-2-0.1-4-0.4-5.9
	L125,187.1z"/>
<path class="st10" d="M181.9,217.7c-1.2-7.9-7.1-14-14.3-14c-3.4,0-6.5,1.4-9,3.7c-2.3-1.7-5-2.7-8-2.7c-8,0-14.5,7.2-14.5,16
	c0,0,0,0.1,0,0.2c5.8,6,13.3,9.6,21.5,9.6C167.2,230.5,175.9,225.5,181.9,217.7z"/>
<path class="st11" d="M190.5,191.3c0-2-0.1-4-0.4-5.9l-65.1,1.7c-0.1,1.4-0.2,2.8-0.2,4.2c0,1.7,0.1,3.3,0.3,4.9
	c10.6,0.5,22,0.6,33.9,0.4c11-0.3,21.5-0.8,31.4-1.7C190.4,193.5,190.5,192.3,190.5,191.3z"/>
<path class="st11" d="M207.5,189.5"/>
<path class="st5" d="M125.4,596.4C125.3,596.4,125.3,596.4,125.4,596.4l-0.5,4.4c-1.1,0.7-3.4,2.2-6.8,3.3c-2,0.7-6.8,2.3-12.7,1.6
	c-7.9-0.9-13.2-5.4-15.2-7.3c-7.9,6.1-15.8,12.2-23.8,18.3c-8.7,8.7-8.7,22.7,0,31.4l0,0c8.7,8.7,22.7,8.7,31.4,0l24.4-24.4
	c1.2-1.2,2.3-2.6,3.2-4L125.4,596.4L125.4,596.4z"/>
<path class="st5" d="M76.8,584.6"/>
<circle class="st0" cx="109.1" cy="396.5" r="24.6"/>
<circle class="st0" cx="363" cy="341.9" r="24.6"/>
</svg>
