<?xml version="1.0" encoding="UTF-8" standalone="no"?>
<!DOCTYPE svg PUBLIC "-//W3C//DTD SVG 1.1//EN" "http://www.w3.org/Graphics/SVG/1.1/DTD/svg11.dtd">
<svg width="100%" height="100%" viewBox="0 0 277 531" version="1.1" xmlns="http://www.w3.org/2000/svg" xmlns:xlink="http://www.w3.org/1999/xlink" xml:space="preserve" xmlns:serif="http://www.serif.com/" style="fill-rule:evenodd;clip-rule:evenodd;stroke-linejoin:round;stroke-miterlimit:2;">
    <g id="Монтажная-область1" serif:id="Монтажная область1" transform="matrix(0.943965,0,0,1,-111.554,-68.9294)">
        <rect x="118.176" y="68.929" width="293.224" height="530.647" style="fill:none;"/>
        <g transform="matrix(1.05936,0,0,1,-24.2342,0.929414)">
            <path d="M312.9,563.5C319.9,562 324.3,555.1 322.7,548.2L287.5,386.1C286,379.1 279.1,374.7 272.2,376.3C265.2,377.8 260.8,384.7 262.4,391.6L297.6,553.7C299.1,560.6 305.9,565 312.9,563.5Z" style="fill:rgb(252,179,160);fill-rule:nonzero;"/>
        </g>
        <g transform="matrix(1.05936,0,0,1,-24.2342,0.929414)">
            <path d="M298.8,564.3C299.4,565.4 300.1,566.5 300.9,567.5L317.3,587C323.1,594 332.5,594 338.4,587C344.2,580 344.2,568.8 338.4,561.9C333,557 327.7,552.1 322.4,547.3C321.1,548.8 317.5,552.4 312.2,553.1C309.1,553.5 306.4,552.6 303.7,551.8C300.6,550.8 298.1,549.6 296.4,548.5C297.3,553.8 298.1,559 298.8,564.3Z" style="fill:rgb(81,0,12);fill-rule:nonzero;"/>
        </g>
        <g transform="matrix(1.05936,0,0,1,-24.2342,0.929414)">
            <path d="M350.7,352.7C344.7,356.6 336.8,354.9 332.9,348.9L312.2,316.9C308.3,310.9 310,303 316,299.1C322,295.2 329.9,296.9 333.8,302.9L354.5,334.9C358.4,340.9 356.7,348.9 350.7,352.7Z" style="fill:rgb(252,179,160);fill-rule:nonzero;"/>
        </g>
        <g transform="matrix(1.05936,0,0,1,-24.2342,0.929414)">
            <path d="M333,349.1C328.9,343.3 330.3,335.3 336.1,331.2L376.6,302.7C382.4,298.6 390.4,300 394.5,305.8C398.6,311.6 397.2,319.6 391.4,323.7L350.9,352.2C345.1,356.3 337.1,354.9 333,349.1Z" style="fill:rgb(252,179,160);fill-rule:nonzero;"/>
        </g>
        <g transform="matrix(1.05936,0,0,1,-24.2342,0.929414)">
            <path d="M195.9,563.5C188.9,562 184.5,555.1 186.1,548.2L221.3,386.1C222.8,379.1 229.7,374.7 236.6,376.3C243.6,377.8 248,384.7 246.4,391.6L211.2,553.7C209.7,560.6 202.9,565 195.9,563.5Z" style="fill:rgb(252,179,160);fill-rule:nonzero;"/>
        </g>
        <g transform="matrix(1.05936,0,0,1,-24.2342,0.929414)">
            <circle cx="391.8" cy="307.1" r="16.7" style="fill:rgb(252,179,160);"/>
        </g>
        <g transform="matrix(1.05936,0,0,1,-24.2342,0.929414)">
            <path d="M335.4,299.4C329.9,299.4 325.4,294.9 325.4,289.4L325.4,157.7C325.4,152.2 329.9,147.7 335.4,147.7C340.9,147.7 345.4,152.2 345.4,157.7L345.4,289.3C345.4,294.9 340.9,299.4 335.4,299.4Z" style="fill:rgb(178,93,0);fill-rule:nonzero;"/>
        </g>
        <g transform="matrix(1.16063,0,0,1.09559,-55.149,-19.918)">
            <path d="M315.3,300.5C309.8,300.5 305.3,296 305.3,290.5L305.3,145.7C305.3,140.2 309.8,135.7 315.3,135.7C320.8,135.7 325.3,140.2 325.3,145.7L325.3,290.5C325.4,296 320.9,300.5 315.3,300.5Z" style="fill:rgb(178,93,0);fill-rule:nonzero;"/>
        </g>
        <g transform="matrix(1.05936,0,0,1,-24.2342,0.929414)">
            <path d="M319.3,334L348.9,313.4L323.5,276.7C317.8,268.5 306.6,266.5 298.4,272.2C290.2,277.9 288.2,289.1 293.9,297.3L319.3,334Z" style="fill:rgb(237,114,72);fill-rule:nonzero;"/>
        </g>
        <g transform="matrix(1.05936,0,0,1,-24.2342,0.929414)">
            <path d="M335.7,418.6L317.5,376.6C316.6,374.6 315.3,372.8 313.7,371.5L313.7,365L186.6,365L186.6,370.5C185,371.9 183.7,373.6 182.8,375.6L164.6,417.6C161.5,424.7 164.8,433 171.9,436.1C179,439.2 187.3,435.9 190.4,428.8L192.4,424.2C192.9,431.5 199,437.3 206.4,437.3L208,437.3C215.8,437.3 222.1,431 222.1,423.2L222.1,422.3C222.1,430.1 228.4,436.4 236.2,436.4C244,436.4 250.3,430.1 250.3,422.3L250.3,423.2C250.3,431 256.6,437.3 264.4,437.3C272.2,437.3 278.5,431 278.5,423.2C278.5,431 284.8,437.3 292.6,437.3L294.7,437.3C301.5,437.3 307.2,432.4 308.5,426L310.2,429.9C313.3,437 321.6,440.3 328.7,437.2C335.8,434.1 338.8,425.7 335.7,418.6Z" style="fill:rgb(242,95,37);fill-rule:nonzero;"/>
        </g>
        <g transform="matrix(1.05936,0,0,1,-24.2342,0.929414)">
            <rect x="210.5" y="132.7" width="103" height="211" style="fill:rgb(252,179,160);"/>
        </g>
        <g transform="matrix(1.05936,0,0,1.05901,-24.2342,-15.225)">
            <path d="M313.5,364.9L186.5,364.9L186.5,283.9C192,282.5 200.7,280.7 211.4,280.2C243.7,278.5 250.7,290.5 272.7,285.8C291.3,281.8 303.9,269.5 310.8,275.3C312.5,276.8 313.2,278.8 313.6,280.2C313.6,308.3 313.6,336.6 313.5,364.9Z" style="fill:rgb(242,95,37);fill-rule:nonzero;"/>
        </g>
        <g transform="matrix(1.05936,0,0,1,-24.2342,0.929414)">
            <ellipse cx="267.9" cy="203.5" rx="10" ry="6.7" style="fill:rgb(247,130,130);"/>
        </g>
        <g transform="matrix(1.05936,0,0,1,-24.2342,0.929414)">
            <path d="M233.9,228.5C233.8,229.6 233.7,230.7 233.7,231.9C233.7,249.2 245.5,263.3 260,263.3C274.6,263.3 286.3,249.3 286.3,231.9C286.3,230.3 286.2,228.7 286,227.2L233.9,228.5Z" style="fill:rgb(71,0,20);fill-rule:nonzero;"/>
        </g>
        <g transform="matrix(1.05936,0,0,1,-24.2342,0.929414)">
            <path d="M279.4,253C278.4,246.7 273.7,241.8 268,241.8C265.3,241.8 262.8,242.9 260.8,244.8C259,243.4 256.8,242.6 254.4,242.6C248,242.6 242.8,248.4 242.8,255.4L242.8,255.6C247.4,260.4 253.4,263.3 260,263.3C267.6,263.3 274.6,259.3 279.4,253Z" style="fill:rgb(255,53,82);fill-opacity:0.82;fill-rule:nonzero;"/>
        </g>
        <g transform="matrix(1.05936,0,0,1,-24.2342,0.929414)">
            <path d="M286.3,231.9C286.3,230.3 286.2,228.7 286,227.2L233.9,228.6C233.8,229.7 233.7,230.8 233.7,232C233.7,233.4 233.8,234.6 233.9,235.9C242.4,236.3 251.5,236.4 261,236.2C269.8,236 278.2,235.6 286.1,234.8C286.2,233.7 286.3,232.7 286.3,231.9Z" style="fill:white;fill-rule:nonzero;"/>
        </g>
        <g transform="matrix(1.05936,0,0,1,-24.2342,0.929414)">
            <path d="M212.4,548.5C210.7,549.5 208.3,550.8 205.1,551.8C202.4,552.6 199.7,553.5 196.6,553.1C191.3,552.4 187.7,548.8 186.4,547.3C181.1,552.2 175.8,557.1 170.4,561.9C164.6,568.9 164.6,580.1 170.4,587C176.2,593.9 185.6,594 191.5,587L207.9,567.5C208.7,566.5 209.4,565.4 210,564.3C210.8,559 211.6,553.8 212.4,548.5Z" style="fill:rgb(81,0,12);fill-rule:nonzero;"/>
        </g>
        <g transform="matrix(1.05936,0,0,1,-24.2342,0.929414)">
            <path d="M318.5,143.3C310.8,107.4 277.6,80.4 237.8,80.4C216.4,80.4 196.9,88.2 182.3,101L182.3,101.2C182.3,131.8 219.2,156.7 264.8,156.7C285.3,156.7 304.1,151.6 318.5,143.3Z" style="fill:rgb(178,93,0);fill-rule:nonzero;"/>
        </g>
        <g transform="matrix(1.05936,0,0,1,-24.2342,0.929414)">
            <path d="M218.8,82.1C183.2,89.8 156.6,121.4 156.6,159.2C156.6,197.1 183.3,228.7 218.8,236.3L218.8,82.1Z" style="fill:rgb(178,93,0);fill-rule:nonzero;"/>
        </g>
        <g transform="matrix(1.05936,0,0,1,-24.2342,0.929414)">
            <path d="M324.3,101.1C324.1,100.8 323.9,100.6 323.7,100.4C323.5,100.1 323.2,99.9 323,99.6C322.5,99.1 322.1,98.6 321.6,98.2C321.4,98 321.1,97.8 320.9,97.5C320.4,97 319.9,96.5 319.4,96C319.2,95.8 319,95.7 318.8,95.5C318.2,95 317.7,94.5 317.1,94C317,93.9 316.9,93.8 316.8,93.7C312.4,90.1 307.7,87.1 302.7,84.9C302.7,84.9 302.6,84.9 302.6,84.8C301.8,84.5 301,84.1 300.2,83.8C300.1,83.8 300,83.7 299.9,83.7C299.1,83.4 298.4,83.1 297.6,82.9C297.5,82.9 297.3,82.8 297.2,82.8C296.4,82.6 295.7,82.3 294.9,82.1C294.8,82.1 294.7,82 294.6,82C290.2,80.8 285.7,80.2 281,80.2C258.4,80.2 238.5,94.5 227,116.1L313.7,116.1L313.7,227.9C332.7,214.1 345.5,188.6 345.5,159.5C345.4,136.5 337.3,115.6 324.3,101.1Z" style="fill:rgb(178,93,0);fill-rule:nonzero;"/>
        </g>
        <g transform="matrix(1.05936,0,0,1,-24.2342,0.929414)">
            <path d="M144.1,355.8C138.4,351.5 137.3,343.4 141.6,337.8L164.5,307.3C168.8,301.6 176.9,300.5 182.5,304.8C188.2,309.1 189.3,317.2 185,322.8L162.1,353.3C157.9,358.9 149.8,360.1 144.1,355.8Z" style="fill:rgb(252,179,160);fill-rule:nonzero;"/>
        </g>
        <g transform="matrix(1.05936,0,0,1,-24.2342,0.929414)">
            <rect x="303.8" y="112" width="14.1" height="17.6" style="fill:rgb(178,93,0);"/>
        </g>
        <g transform="matrix(1.05936,0,0,1,-24.2342,0.929414)">
            <path d="M182.6,333L153,312.5L178.4,275.8C184.1,267.6 195.3,265.6 203.5,271.3C211.7,277 213.7,288.2 208,296.4L182.6,333Z" style="fill:rgb(237,114,72);fill-rule:nonzero;"/>
        </g>
        <g transform="matrix(1.05936,0,0,1,-24.2342,0.929414)">
            <path d="M167,298.9C161.2,298.9 156.5,294.4 156.5,288.9L156.5,166.7C156.5,161.2 161.2,156.7 167,156.7C172.8,156.7 177.5,161.2 177.5,166.7L177.5,288.9C177.7,294.4 173,298.9 167,298.9Z" style="fill:rgb(178,93,0);fill-rule:nonzero;"/>
        </g>
        <g transform="matrix(1.05936,0,0,1,-24.2342,0.929414)">
            <path d="M186.6,301.5C181.1,301.5 176.6,297 176.6,291.5L176.6,169.3C176.6,163.8 181.1,159.3 186.6,159.3C192.1,159.3 196.6,163.8 196.6,169.3L196.6,291.5C196.6,297 192.1,301.5 186.6,301.5Z" style="fill:rgb(178,93,0);fill-rule:nonzero;"/>
        </g>
        <g transform="matrix(1.05936,0,0,1,-24.2342,0.929414)">
            <path d="M208.8,301.5L205.2,301.5C199.7,301.5 195.2,297 195.2,291.5L195.2,169.3C195.2,163.8 199.7,159.3 205.2,159.3L208.8,159.3C214.3,159.3 218.8,163.8 218.8,169.3L218.8,291.5C218.8,297 214.3,301.5 208.8,301.5Z" style="fill:rgb(178,93,0);fill-rule:nonzero;"/>
        </g>
        <g transform="matrix(1.05936,0,0,1,-24.2342,0.929414)">
            <path d="M314.1,248.4C300.4,260.4 286.7,272.4 272.9,284.4C254.8,276.8 236.8,269.2 218.7,261.6L218.7,282.5C237,285.3 255.2,288.2 273.5,291C291.2,286.1 309,281.3 326.7,276.4C322.5,267.1 318.3,257.7 314.1,248.4Z" style="fill:rgb(237,114,72);fill-rule:nonzero;"/>
        </g>
        <g transform="matrix(1.05936,0,0,1,-24.2342,0.929414)">
            <path d="M250.8,191.3C249.4,190.2 244.7,187 238,186.9C231.1,186.9 226.4,190.2 225,191.3C223.7,191.5 223.3,191.2 223.2,191C222.5,190.2 223.2,188.1 225,185.7C225.5,185.1 230.2,178.7 238.4,178.9C246,179.1 250.3,184.9 250.9,185.7C252.8,188 253.5,190.1 252.8,190.9C252.5,191 252.1,191.5 250.8,191.3Z" style="fill-rule:nonzero;"/>
        </g>
        <g transform="matrix(1.05936,0,0,1,-24.2342,0.929414)">
            <path d="M306.9,191.3C305.5,190.2 300.8,187 294.1,186.9C287.2,186.9 282.5,190.2 281.1,191.3C279.8,191.5 279.4,191.2 279.3,191C278.6,190.2 279.3,188.1 281.1,185.7C281.6,185.1 286.3,178.7 294.5,178.9C302.1,179.1 306.4,184.9 307,185.7C308.9,188 309.6,190.1 308.9,190.9C308.6,191 308.2,191.5 306.9,191.3Z" style="fill-rule:nonzero;"/>
        </g>
        <g transform="matrix(1.05936,0,0,1,-24.2342,0.929414)">
            <path d="M141.4,337.9C145.5,332.1 153.5,330.6 159.3,334.7L190.6,356.4C196.4,360.5 197.9,368.5 193.8,374.3C189.7,380.1 181.7,381.6 175.9,377.5L144.6,355.8C138.8,351.8 137.4,343.7 141.4,337.9Z" style="fill:rgb(252,179,160);fill-rule:nonzero;"/>
        </g>
        <g transform="matrix(1.05936,0,0,1,-24.2342,0.929414)">
            <circle cx="189.6" cy="371.3" r="16.7" style="fill:rgb(252,179,160);"/>
        </g>
        <g transform="matrix(1.05936,0,0,1,-24.2342,0.929414)">
            <path d="M212.4,548.5C211.5,549.3 205.7,554.3 197.4,553.2C191.3,552.3 187.5,548.5 186.4,547.3C190.1,530 193.9,512.7 197.6,495.3C200,496.8 203.9,498.9 209.2,499.9C215.1,501.1 220,500.5 222.9,499.9C219.4,516.1 215.9,532.3 212.4,548.5Z" style="fill:rgb(249,232,235);fill-rule:nonzero;"/>
        </g>
        <g transform="matrix(1.05936,0,0,1,-24.2342,0.929414)">
            <path d="M322.4,547.3C321.1,548.8 318.3,551.6 313.8,552.8C304.7,555.3 297.2,549.1 296.4,548.5C292.7,531.3 289,514 285.2,496.8C287.8,497.7 293.7,499.4 300.9,497.8C305.4,496.8 308.7,494.9 310.8,493.4C314.7,511.3 318.5,529.3 322.4,547.3Z" style="fill:rgb(249,232,235);fill-rule:nonzero;"/>
        </g>
    </g>
</svg>
