<?xml version="1.0" encoding="utf-8"?>
<!-- Generator: Adobe Illustrator 24.1.2, SVG Export Plug-In . SVG Version: 6.00 Build 0)  -->
<svg version="1.1" id="Слой_1" xmlns="http://www.w3.org/2000/svg" xmlns:xlink="http://www.w3.org/1999/xlink" x="0px" y="0px"
	 viewBox="0 0 460.5 818.1" style="enable-background:new 0 0 460.5 818.1;" xml:space="preserve">
<style type="text/css">
	.st0{display:none;}
	.st1{fill:#905411;}
	.st2{fill:#F9C529;}
	.st3{fill:#D9D2C1;}
	.st4{fill:#F3F1EB;}
	.st5{fill:#FFC321;}
	.st6{fill:#D03D3D;}
	.st7{fill:#C9D4DE;}
	.st8{fill:#A5B9CE;}
	.st9{fill:#627890;}
	.st10{fill:#333333;}
	.st11{fill:#FCB3A0;}
	.st12{fill:#E48A75;}
	.st13{fill:#F78282;}
	.st14{fill:#754C24;}
	.st15{display:inline;fill:#C7B299;}
	.st16{fill:#607894;}
	.st17{fill:#627891;}
	.st18{fill:#470014;}
	.st19{opacity:0.82;fill:#FF3552;enable-background:new    ;}
	.st20{fill:#FFFFFF;}
	.st21{fill:#64778F;}
	.st22{fill:#42210B;}
	.st23{fill:#1D232B;}
	.st24{fill:#AAB4BC;}
</style>
<g id="Слой_3" class="st0">
	
		<image style="display:inline;overflow:visible;enable-background:new    ;" width="848" height="1200" xlink:href="../../Pictures/D7XpFR0XsAEF7CM.jpg"  transform="matrix(0.7426 0 0 0.7449 -864.5877 -115.2905)">
	</image>
</g>
<g id="Меч">
	
		<rect x="356.6" y="492.9" transform="matrix(7.015183e-02 -0.9975 0.9975 7.015183e-02 -123.8643 869.2891)" class="st1" width="95.6" height="16.4"/>
	
		<ellipse transform="matrix(7.015183e-02 -0.9975 0.9975 7.015183e-02 -182.1828 916.3633)" class="st2" cx="400.4" cy="555.9" rx="12.6" ry="14.4"/>
	<path class="st3" d="M426.1,449.9l-18.1-1.3l27.6-393c4.6,3.9,9.3,7.7,13.9,11.6C441.7,194.8,433.9,322.4,426.1,449.9z"/>
	<path class="st4" d="M408,448.6l-18.1-1.3c10.2-127.1,20.4-254.1,30.6-381.2c5-3.5,10.1-7,15.1-10.5L408,448.6z"/>
	
		<rect x="402.8" y="400.1" transform="matrix(7.015183e-02 -0.9975 0.9975 7.015183e-02 -72.3236 827.5839)" class="st5" width="10" height="105"/>
</g>
<g id="Слой_1_1_">
	<path class="st6" d="M180.9,123.6c-7.8-6.5-20.5-15.7-37.8-22.7c-35-14.1-56-5.9-71.5-20.2C63.2,73,54.9,57.3,59.9,21.8
		c6.5,10.3,17.4,23.9,34.6,30.5c32.8,12.5,60-11.3,78,0.9C181.8,59.5,189.6,76.4,180.9,123.6z"/>
	<path class="st7" d="M255.2,388c-12.5-6.3-25.1-12.5-37.6-18.8c-2-47.6-4-95.1-6-142.7H252C253,280.3,254.1,334.1,255.2,388z"/>
	<path class="st7" d="M206.6,151.2c-15.8,1-31.5,2-47.3,3.1c1.2-11,2.5-22,3.7-32.9c3.6-1.3,9-2.8,15.5-3.1c7-0.3,12.7,0.8,16.6,1.9
		C199,130.5,202.8,140.9,206.6,151.2z"/>
	
		<rect x="66.3" y="644.8" transform="matrix(6.659732e-02 -0.9978 0.9978 6.659732e-02 -516.8143 772.0604)" class="st8" width="175.9" height="35"/>
	
		<rect x="192.4" y="574" transform="matrix(0.9978 -6.659732e-02 6.659732e-02 0.9978 -43.6195 15.4476)" class="st8" width="35" height="175.9"/>
	<path class="st9" d="M254.3,622.5c-21.1,3.2-45.5,5.5-72.7,5.7c-25,0.2-47.6-1.4-67.4-3.9c4.8-32,9.7-64,14.5-96h105
		C240.6,559.8,247.5,591.2,254.3,622.5z"/>
	<path class="st10" d="M274.5,553.1"/>
	<path class="st9" d="M309.7,503.3L309.7,503.3c-7.9,2.4-16.3-2.1-18.7-10l-25.8-85.1c-2.4-7.9,2.1-16.3,10-18.7l0,0
		c7.9-2.4,16.3,2.1,18.7,10l25.8,85.1C322.1,492.5,317.6,500.9,309.7,503.3z"/>
	<circle class="st11" cx="134.9" cy="276.4" r="15.5"/>
	<circle class="st12" cx="133.4" cy="276.9" r="9"/>
	<path class="st7" d="M243.8,409.9c5.7,7.1,13.8,15.5,25.1,23c10.8,7.2,21.4,11.4,29.9,13.9c0.5,0.3,3.2,2.1,7.3,0.7
		c2.6-0.9,5.1-2.8,6.9-5.5l0,0c16.4-24.5,14.6-54.4-4-67l-2.6-1.7c-18.6-12.5-47.1-2.8-63.5,21.6l0,0
		C239.2,400.4,239.6,407.1,243.8,409.9z"/>
	<rect x="135.4" y="217.9" class="st11" width="103" height="211"/>
	<path class="st13" d="M212.4,298.9h-8.7c-4,0-7.3-3.3-7.3-7.3v-21.5c0-4,3.3-7.3,7.3-7.3h1.5c4,0,7.3,3.3,7.3,7.3L212.4,298.9
		L212.4,298.9z"/>
	<ellipse cx="184.4" cy="259.4" rx="11" ry="10.5"/>
	<ellipse cx="222.4" cy="259.4" rx="11" ry="10.5"/>
	<ellipse class="st13" cx="212.9" cy="286.9" rx="11.5" ry="12"/>
	<path class="st14" d="M193.2,252.7l-22.9,2.4c-4.4,0.5-8.3-2.7-8.8-7.1l0,0c-0.5-4.4,2.7-8.3,7.1-8.8l22.9-2.4
		c4.4-0.5,8.3,2.7,8.8,7.1l0,0C200.8,248.3,197.6,252.2,193.2,252.7z"/>
	<path class="st14" d="M233.8,253.8l-22.9-1.8c-4.4-0.3-7.7-4.2-7.4-8.6l0,0c0.3-4.4,4.2-7.7,8.6-7.4l22.9,1.8
		c4.4,0.3,7.7,4.2,7.4,8.6l0,0C242,250.8,238.2,254.1,233.8,253.8z"/>
	<ellipse class="st14" cx="139.9" cy="206.9" rx="25.5" ry="22"/>
	<ellipse class="st14" cx="180.9" cy="204.9" rx="25.5" ry="22"/>
	<ellipse class="st14" cx="217.9" cy="206.9" rx="25.5" ry="22"/>
	<ellipse class="st14" cx="229.9" cy="199.9" rx="25.5" ry="22"/>
	<path class="st14" d="M135.4,217.9h28.1c-4.6-4.3-11.3-7-18.6-7c-14.1,0-25.5,9.9-25.5,22c0,9.3,6.6,17.2,16,20.4V217.9z"/>
	<path class="st14" d="M238.4,231c3.1-3.7,5-8.2,5-13.1c0-12.1-11.4-22-25.5-22s-25.5,9.9-25.5,22h46V231z"/>
	<ellipse class="st14" cx="161.9" cy="184.9" rx="25.5" ry="22"/>
	<ellipse class="st14" cx="194.9" cy="184.9" rx="25.5" ry="22"/>
	<ellipse class="st14" cx="194.9" cy="175.9" rx="25.5" ry="22"/>
	<ellipse class="st14" cx="222.9" cy="184.9" rx="25.5" ry="22"/>
	<path class="st14" d="M144.4,260.9L144.4,260.9c-6.1,0-11-4.9-11-11v-28c0-6.1,4.9-11,11-11l0,0c6.1,0,11,4.9,11,11v28
		C155.4,256,150.5,260.9,144.4,260.9z"/>
	<path class="st9" d="M197.4,738.3C197.5,738.3,197.5,738.3,197.4,738.3l0.5,4.4c1.1,0.7,3.4,2.2,6.8,3.3c2,0.7,6.8,2.3,12.7,1.6
		c7.9-0.9,13.2-5.4,15.2-7.3c7.9,6.1,15.8,12.2,23.8,18.3c8.7,8.7,8.7,22.7,0,31.4l0,0c-8.7,8.7-22.7,8.7-31.4,0l-24.4-24.4
		c-1.2-1.2-2.3-2.6-3.2-4V738.3L197.4,738.3z"/>
	<g class="st0">
		<path class="st15" d="M316.5,448.2l-11.7-38.8c-5.2-17.2-19.1-28.2-31-24.6l0,0c-11.9,3.6-17.3,20.5-12.1,37.6l11.7,38.8
			L316.5,448.2z"/>
	</g>
	<path class="st9" d="M410.6,483.6L410.6,483.6c0.6,8.3-5.6,15.4-13.9,16L308,506c-8.3,0.6-15.4-5.6-16-13.9l0,0
		c-0.6-8.3,5.6-15.4,13.9-16l88.7-6.4C402.8,469.1,410,475.3,410.6,483.6z"/>
	<g>
		<path class="st8" d="M238.4,358.9V372c-2,3.1-5.5,7.7-11.2,11.3c-5.1,3.3-11.5,5.5-22.9,5.8c-18,0.6-34.3-3.9-45.9-8.3
			c-7.7-3-15.3-5.9-23-8.9v-13h-4.5c-35.6,0-64.5,37.9-64.5,84.8c0,46.8,28.9,84.8,64.5,84.8h107c35.6,0,64.5-37.9,64.5-84.8
			C302.4,397.1,273.8,359.3,238.4,358.9z"/>
	</g>
	<path class="st16" d="M61.3,501.9L61.3,501.9c-7.9-2.5-12.3-10.9-9.9-18.8l26.4-84.9c2.5-7.9,10.9-12.3,18.8-9.9l0,0
		c7.9,2.5,12.3,10.9,9.9,18.8L80.1,492C77.7,499.9,69.3,504.3,61.3,501.9z"/>
	<g class="st0">
		<path class="st15" d="M97.9,460.1l12-38.7c5.3-17.1,0-34-11.8-37.7l0,0C86.2,380,72.3,390.9,67,408l-12,38.7L97.9,460.1z"/>
	</g>
	<path class="st17" d="M155.9,542.2L155.9,542.2c-4.1,7.2-13.3,9.6-20.5,5.5l-77-44.5c-7.2-4.1-9.6-13.3-5.5-20.5l0,0
		c4.1-7.2,13.3-9.6,20.5-5.5l77,44.5C157.6,525.9,160.1,535,155.9,542.2z"/>
	<path class="st18" d="M166.3,329.2c-0.1,1.4-0.2,2.8-0.2,4.2c0,21.6,14.7,39.2,32.9,39.2s32.9-17.5,32.9-39.2c0-2-0.1-4-0.4-5.9
		L166.3,329.2z"/>
	<path class="st19" d="M223.2,359.9c-1.2-7.9-7.1-14-14.3-14c-3.4,0-6.5,1.4-9,3.7c-2.3-1.7-5-2.7-8-2.7c-8,0-14.5,7.2-14.5,16
		c0,0,0,0.1,0,0.2c5.8,6,13.3,9.6,21.5,9.6C208.5,372.6,217.2,367.7,223.2,359.9z"/>
	<path class="st20" d="M231.8,333.4c0-2-0.1-4-0.4-5.9l-65.1,1.7c-0.1,1.4-0.2,2.8-0.2,4.2c0,1.7,0.1,3.3,0.3,4.9
		c10.6,0.5,22,0.6,33.9,0.4c11-0.3,21.5-0.8,31.4-1.7C231.7,335.7,231.8,334.5,231.8,333.4z"/>
	<path class="st20" d="M248.8,331.7"/>
	<path class="st21" d="M166.7,738.6C166.6,738.6,166.6,738.6,166.7,738.6l-0.5,4.4c-1.1,0.7-3.4,2.2-6.8,3.3
		c-2,0.7-6.8,2.3-12.7,1.6c-7.9-0.9-13.2-5.4-15.2-7.3c-7.9,6.1-15.8,12.2-23.8,18.3c-8.7,8.7-8.7,22.7,0,31.4l0,0
		c8.7,8.7,22.7,8.7,31.4,0l24.4-24.4c1.2-1.2,2.3-2.6,3.2-4V738.6L166.7,738.6z"/>
	<path class="st22" d="M118.1,726.8"/>
	<circle class="st7" cx="150.4" cy="538.7" r="24.6"/>
	<circle class="st7" cx="404.3" cy="484" r="24.6"/>
	<path class="st7" d="M124.4,412.1c-5.6,7.2-13.7,15.7-25,23.2c-10.8,7.2-21.4,11.3-30,13.7c-0.5,0.3-3.2,2.1-7.4,0.6
		c-2.6-1-5.2-3-7.1-5.8l0,0c-17.1-25.5-15.8-56.3,2.8-68.8l2.6-1.7c18.6-12.5,47.6-2,64.7,23.5l0,0
		C128.9,402.4,128.6,409.3,124.4,412.1z"/>
	<path class="st7" d="M160.1,388c-12.5-6.3-25.1-12.5-37.6-18.8c-2-47.6-4-95.1-6-142.7h40.4C157.9,280.3,159,334.1,160.1,388z"/>
	<path class="st8" d="M248.3,228.5c-15.9,4.1-37,8.1-61.9,8.9c-24,0.8-44.6-1.5-60.3-4.4c-1.1,0-7.1,0.2-12.1-4.1
		c-3.1-2.7-5.2-6.5-5.3-10.7l0,0c-1.4-38,31.1-70.1,72.5-71.6l5.7-0.2c41.5-1.5,76.2,28,77.6,66.1l0,0
		C264.8,221,257.6,228.2,248.3,228.5z"/>
	<path class="st7" d="M254.7,361.8c-5.1,5.9-14,14.9-27.5,21.6c-29.1,14.4-57.5,7.2-67.1,4.6c-8.6-2.3-22.7-7.3-37.6-18.8
		c-0.4-10.1-0.9-20.2-1.3-30.3c13.1,2.8,24.2,4.4,32.2,5.4c30.5,3.7,72.6,8.8,89.2-7.6c1.8-1.8,7.1-7.6,9.7-6.2
		c1.8,0.9,1.5,5.1,0.9,8.5C253.7,346.5,254.2,354.2,254.7,361.8z"/>
	<path class="st17" d="M259.9,218.9c-9.9,7.5-29.2,20-56.4,24.5c-43.4,7.1-77-11-87-16.9c-0.4-9.3-0.8-18.5-1.2-27.8
		c9-6.6,43.7-30.3,90.2-24.8c24.5,2.9,42.6,12.8,52.9,19.6C258.9,202,259.4,210.4,259.9,218.9z"/>
	<ellipse class="st23" cx="119.4" cy="210.9" rx="8.7" ry="18.5"/>
	<ellipse cx="255.2" cy="206.9" rx="8.7" ry="18.5"/>
	<path d="M190.8,235l-6.2,0.3c-1.2,0.1-2.2-0.9-2.3-2.1l-2.1-44.3c-0.1-1.2,0.9-2.2,2.1-2.3l6.2-0.3c1.2-0.1,2.2,0.9,2.3,2.1
		l2.1,44.3C192.9,234,192,235,190.8,235z"/>
	<path d="M213.8,228.7l-6.2,0.3c-1.2,0.1-2.2-0.9-2.3-2.1l-1.7-35.1c-0.1-1.2,0.9-2.2,2.1-2.3l6.2-0.3c1.2-0.1,2.2,0.9,2.3,2.1
		l1.7,35.1C216,227.7,215,228.7,213.8,228.7z"/>
	<path d="M167.5,230.9l-6.2,0.3c-1.2,0.1-2.2-0.9-2.3-2.1l-1.6-34.3c-0.1-1.2,0.9-2.2,2.1-2.3l6.2-0.3c1.2-0.1,2.2,0.9,2.3,2.1
		l1.6,34.3C169.6,229.8,168.7,230.8,167.5,230.9z"/>
</g>
<g id="Щит">
	<g>
		<path class="st24" d="M28.1,459.6c0.1-0.5,0.2-0.9,0.2-1.4C28.3,458.7,28.2,459.1,28.1,459.6z"/>
		<path class="st24" d="M27.7,462.4c0.1-0.5,0.2-0.9,0.2-1.4C27.8,461.5,27.8,461.9,27.7,462.4z"/>
		<path class="st24" d="M27.2,465.2c0.1-0.5,0.1-0.9,0.2-1.4C27.4,464.3,27.3,464.8,27.2,465.2z"/>
		<path class="st24" d="M28.6,456.9c0.1-0.5,0.2-0.9,0.3-1.4C28.8,455.9,28.7,456.4,28.6,456.9z"/>
		<path class="st24" d="M30.1,448.9c0.1-0.5,0.2-1,0.3-1.4C30.3,447.9,30.2,448.4,30.1,448.9z"/>
		<path class="st24" d="M29.1,454.1c0.1-0.5,0.2-0.9,0.3-1.4C29.3,453.2,29.2,453.7,29.1,454.1z"/>
		<path class="st24" d="M29.6,451.5c0.1-0.5,0.2-1,0.3-1.4C29.8,450.5,29.7,451,29.6,451.5z"/>
		<path class="st24" d="M26.4,471.1c0.1-0.5,0.1-0.9,0.2-1.4C26.5,470.1,26.5,470.6,26.4,471.1z"/>
		<path class="st24" d="M25.3,480.1c0-0.5,0.1-0.9,0.2-1.4C25.4,479.1,25.4,479.6,25.3,480.1z"/>
		<path class="st24" d="M25,483.1c0-0.5,0.1-0.9,0.1-1.4C25.1,482.2,25.1,482.7,25,483.1z"/>
		<path class="st24" d="M24.7,486.3c0-0.5,0.1-1,0.1-1.4C24.8,485.3,24.8,485.8,24.7,486.3z"/>
		<path class="st24" d="M26.8,468.1c0.1-0.5,0.1-0.9,0.2-1.4C27,467.2,26.9,467.7,26.8,468.1z"/>
		<path class="st24" d="M30.7,446.3c0.1-0.5,0.2-1,0.3-1.5C30.9,445.3,30.8,445.8,30.7,446.3z"/>
		<path class="st24" d="M25.7,477c0.1-0.5,0.1-0.9,0.2-1.4C25.8,476.1,25.7,476.6,25.7,477z"/>
		<path class="st24" d="M26,474c0.1-0.5,0.1-0.9,0.2-1.4C26.2,473.1,26.1,473.6,26,474z"/>
		<path class="st24" d="M24.5,489.4c0-0.5,0.1-1,0.1-1.4C24.6,488.5,24.5,488.9,24.5,489.4z"/>
		<path class="st24" d="M36.9,421.3c0.2-0.5,0.3-1.1,0.5-1.6C37.2,420.3,37,420.8,36.9,421.3z"/>
		<path class="st24" d="M35.7,425.4c0.1-0.5,0.3-1,0.4-1.6C36,424.4,35.9,424.9,35.7,425.4z"/>
		<path class="st24" d="M36.3,423.3c0.1-0.5,0.3-1.1,0.4-1.6C36.6,422.3,36.4,422.8,36.3,423.3z"/>
		<path class="st24" d="M38,417.5c0.2-0.5,0.3-1.1,0.5-1.6C38.3,416.4,38.2,416.9,38,417.5z"/>
		<path class="st24" d="M37.4,419.4c0.2-0.5,0.3-1.1,0.5-1.6C37.8,418.3,37.6,418.8,37.4,419.4z"/>
		<path class="st24" d="M23.6,511c0,0.5,0,1,0,1.5C23.6,512,23.6,511.5,23.6,511z"/>
		<path class="st24" d="M39.1,413.9c0.2-0.6,0.4-1.1,0.5-1.7C39.4,412.8,39.3,413.3,39.1,413.9z"/>
		<path class="st24" d="M38.5,415.7c0.2-0.6,0.3-1.1,0.5-1.7C38.9,414.6,38.7,415.1,38.5,415.7z"/>
		<path class="st24" d="M31.2,443.8c0.1-0.5,0.2-1,0.3-1.5C31.4,442.8,31.3,443.3,31.2,443.8z"/>
		<path class="st24" d="M32.3,438.9c0.1-0.5,0.2-1,0.3-1.5C32.5,437.9,32.4,438.4,32.3,438.9z"/>
		<path class="st24" d="M31.8,441.3c0.1-0.5,0.2-1,0.3-1.5C32,440.3,31.9,440.8,31.8,441.3z"/>
		<path class="st24" d="M32.9,436.5c0.1-0.5,0.2-1,0.4-1.5C33.1,435.5,33,436,32.9,436.5z"/>
		<path class="st24" d="M34,431.9c0.1-0.5,0.3-1,0.4-1.5C34.3,430.9,34.1,431.4,34,431.9z"/>
		<path class="st24" d="M34.6,429.7c0.1-0.5,0.3-1,0.4-1.5C34.8,428.7,34.7,429.2,34.6,429.7z"/>
		<path class="st24" d="M35.2,427.5c0.1-0.5,0.3-1,0.4-1.6C35.4,426.5,35.3,427,35.2,427.5z"/>
		<path class="st24" d="M33.4,434.2c0.1-0.5,0.3-1,0.4-1.5C33.7,433.2,33.6,433.7,33.4,434.2z"/>
		<path class="st24" d="M25.2,544.2c-0.1-0.5-0.1-1-0.2-1.5C25.1,543.1,25.2,543.6,25.2,544.2z"/>
		<path class="st24" d="M29.2,570.1c-0.1-0.6-0.2-1.1-0.3-1.7C29,569,29.1,569.6,29.2,570.1z"/>
		<path class="st24" d="M31.8,581.5c-0.1-0.6-0.3-1.1-0.4-1.7C31.5,580.4,31.6,581,31.8,581.5z"/>
		<path class="st24" d="M30.8,577.7c-0.1-0.6-0.3-1.1-0.4-1.7C30.6,576.6,30.7,577.1,30.8,577.7z"/>
		<path class="st24" d="M30,573.9c-0.1-0.6-0.2-1.1-0.4-1.7C29.8,572.8,29.9,573.3,30,573.9z"/>
		<path class="st24" d="M28.5,566.3c-0.1-0.5-0.2-1.1-0.3-1.6C28.3,565.3,28.4,565.8,28.5,566.3z"/>
		<path class="st24" d="M27.2,558.9c-0.1-0.5-0.2-1.1-0.2-1.6C27,557.8,27.1,558.3,27.2,558.9z"/>
		<path class="st24" d="M27.8,562.6c-0.1-0.5-0.2-1.1-0.3-1.6C27.6,561.5,27.7,562.1,27.8,562.6z"/>
		<path class="st24" d="M26.6,555.2c-0.1-0.5-0.1-1.1-0.2-1.6C26.5,554.1,26.5,554.6,26.6,555.2z"/>
		<path class="st24" d="M38.6,604.7c-0.1-0.4-0.3-0.8-0.4-1.2C38.3,603.9,38.4,604.3,38.6,604.7z"/>
		<path class="st24" d="M249.2,412.7l-0.9-1.3c0.2,0,0.3-0.1,0.5-0.1c-26.4,6.6-61.4,12.7-102.9,12.9C103,424.4,66.8,418,40,411.3
			c-0.1,0.3-0.2,0.6-0.3,1l179.2,256.6c0,0.1-0.1,0.2-0.1,0.2c10.8-16.2,21.5-35.8,29.9-59.1C279.3,525.8,260.6,448.3,249.2,412.7z"
			/>
		<path class="st24" d="M37.3,600.8c-0.2-0.5-0.3-1-0.5-1.5C36.9,599.8,37.1,600.3,37.3,600.8z"/>
		<path class="st24" d="M32.7,585.3c-0.1-0.6-0.3-1.1-0.4-1.7C32.4,584.2,32.6,584.8,32.7,585.3z"/>
		<path class="st24" d="M33.8,589.2c-0.2-0.6-0.3-1.1-0.4-1.7C33.5,588.1,33.6,588.6,33.8,589.2z"/>
		<path class="st24" d="M34.9,593c-0.2-0.5-0.3-1.1-0.5-1.6C34.6,592,34.7,592.5,34.9,593z"/>
		<path class="st24" d="M36,596.9c-0.2-0.5-0.3-1.1-0.5-1.6C35.7,595.8,35.9,596.4,36,596.9z"/>
		<path class="st24" d="M23.7,522.8c0-0.5,0-1,0-1.5C23.7,521.8,23.7,522.3,23.7,522.8z"/>
		<path class="st24" d="M23.7,505.7c0-0.5,0-1,0-1.4C23.7,504.7,23.7,505.2,23.7,505.7z"/>
		<path class="st24" d="M23.6,509.1c0-0.5,0-1,0-1.4C23.6,508.1,23.6,508.6,23.6,509.1z"/>
		<path class="st24" d="M23.6,515.9c0-0.5,0-1,0-1.5C23.6,514.9,23.6,515.4,23.6,515.9z"/>
		<path class="st24" d="M23.8,502.4c0-0.5,0-1,0.1-1.4C23.8,501.4,23.8,501.9,23.8,502.4z"/>
		<path class="st24" d="M24.1,495.8c0-0.5,0.1-1,0.1-1.4C24.1,494.9,24.1,495.4,24.1,495.8z"/>
		<path class="st24" d="M26.1,551.5c-0.1-0.5-0.1-1.1-0.2-1.6C26,550.4,26,550.9,26.1,551.5z"/>
		<path class="st24" d="M23.9,499.1c0-0.5,0-1,0.1-1.4C24,498.1,23.9,498.6,23.9,499.1z"/>
		<path class="st24" d="M23.7,519.3c0-0.5,0-1,0-1.5C23.6,518.3,23.6,518.8,23.7,519.3z"/>
		<path class="st24" d="M24.9,540.5c0-0.5-0.1-1-0.1-1.6C24.8,539.5,24.8,540,24.9,540.5z"/>
		<path class="st24" d="M25.6,547.8c-0.1-0.5-0.1-1-0.2-1.6C25.5,546.8,25.6,547.3,25.6,547.8z"/>
		<path class="st24" d="M24.5,536.9c0-0.5-0.1-1-0.1-1.5C24.5,535.9,24.5,536.4,24.5,536.9z"/>
		<path class="st24" d="M24.3,492.6c0-0.5,0.1-0.9,0.1-1.4C24.3,491.7,24.3,492.1,24.3,492.6z"/>
		<path class="st24" d="M23.9,526.3c0-0.5,0-1-0.1-1.5C23.8,525.3,23.9,525.8,23.9,526.3z"/>
		<path class="st24" d="M24.1,529.8c0-0.5-0.1-1-0.1-1.5C24,528.8,24,529.3,24.1,529.8z"/>
		<path class="st24" d="M24.3,533.4c0-0.5-0.1-1-0.1-1.5C24.2,532.3,24.2,532.8,24.3,533.4z"/>
	</g>
	<g>
		<path class="st7" d="M249.2,412.7c-0.2-0.5-0.3-1-0.5-1.4c-0.2,0-0.3,0.1-0.5,0.1L249.2,412.7z"/>
		<path class="st7" d="M39.6,412.2C28,449,10.1,525.6,39.9,608.6c7.4,20.7,16.6,38.5,26.1,53.6c15.4,7.2,42.2,17.3,77,18.6
			c33.4,1.3,60-6.1,75.7-11.8c0-0.1,0.1-0.2,0.1-0.2L39.6,412.2z"/>
	</g>
	<path class="st5" d="M180,469.3c-8.8,2.8-21.8,5.9-37.8,5.8c-15.8,0-28.7-3.1-37.4-5.8c0-9.2,0-18.4,0-27.6c9.3,2.5,22.1,5,37.4,5
		c15.5,0,28.5-2.5,37.8-5C180,450.8,180,460.1,180,469.3z"/>
	<path class="st5" d="M160.3,503.1c-4.4,1.4-10.9,2.9-18.9,2.9c-7.9,0-14.3-1.5-18.7-2.9c0-4.6,0-9.2,0-13.8
		c4.6,1.3,11,2.5,18.7,2.5c7.8,0,14.2-1.2,18.9-2.5C160.3,493.9,160.3,498.5,160.3,503.1z"/>
	<ellipse class="st5" cx="144.4" cy="650.9" rx="8.7" ry="18.1"/>
</g>
</svg>
