<?xml version="1.0" encoding="utf-8"?>
<!-- Generator: Adobe Illustrator 24.1.2, SVG Export Plug-In . SVG Version: 6.00 Build 0)  -->
<svg version="1.1" xmlns="http://www.w3.org/2000/svg" xmlns:xlink="http://www.w3.org/1999/xlink" x="0px" y="0px"
	 viewBox="0 0 433.8 662.2" style="enable-background:new 0 0 433.8 662.2;" xml:space="preserve">
<style type="text/css">
	.st0{display:none;}
	.st1{fill:#9B836B;}
	.st2{fill:#11112B;}
	.st3{fill:#FCB3A0;}
	.st4{fill:#4876B4;}
	.st5{fill:#E48A75;}
	.st6{fill:#F78282;}
	.st7{fill:#754C24;}
	.st8{fill:#4D4D4D;}
	.st9{fill:#333333;}
	.st10{fill:#4A7FC1;}
	.st11{fill:#324981;}
	.st12{fill:#470014;}
	.st13{opacity:0.82;fill:#FF3552;enable-background:new    ;}
	.st14{fill:#FFFFFF;}
	.st15{fill:#42210B;}
	.st16{fill:#FDC42F;}
	.st17{fill:#7C6752;}
</style>
<g id="Слой_2" class="st0">
	
		<image style="display:inline;overflow:visible;" width="900" height="840" xlink:href="../../Pictures/kisspng-language-magician-clip-art-american-council-on-the-teaching-of-foreign-langua-5b035a2ae7a5f3.8657676615269463469488.jpg"  transform="matrix(0.555 0 0 0.555 -760.0573 83.2691)">
	</image>
</g>
<g id="Слой_1">
	<path class="st1" d="M359.3,627.3L359.3,627.3c-3.6-0.2-6.3-3.3-6.1-6.9l27.6-431.9c0.2-3.6,3.3-6.3,6.9-6.1v0
		c3.6,0.2,6.3,3.3,6.1,6.9l-27.6,431.9C366,624.8,362.9,627.5,359.3,627.3z"/>
	<rect x="122.8" y="305.8" class="st2" width="70.6" height="258.1"/>
	<path class="st2" d="M362.7,411.3c1.8-9.1,3.8-25.4-0.5-44.9c-4.4-19.6-13.3-33.6-18.9-41c-8.1,5-16.3,10-24.4,15.1L362.7,411.3z"
		/>
	<path class="st3" d="M382.1,340.5L382.1,340.5c0.6,8.3-5.6,15.4-13.9,16l-88.7,6.4c-8.3,0.6-15.4-5.6-16-13.9l0,0
		c-0.6-8.3,5.6-15.4,13.9-16l88.7-6.4C374.4,326,381.5,332.2,382.1,340.5z"/>
	<path class="st3" d="M281.2,360.2L281.2,360.2c-7.9,2.4-16.3-2.1-18.7-10l-25.8-85.1c-2.4-7.9,2.1-16.3,10-18.7l0,0
		c7.9-2.4,16.3,2.1,18.7,10l25.8,85.1C293.6,349.4,289.2,357.8,281.2,360.2z"/>
	<g>
		<path class="st4" d="M318.9,364l-26-69.7c-11.5-30.9-33.7-54.6-49.6-53l0,0c-15.8,1.6-19.3,27.9-7.8,58.8l26,69.7L318.9,364z"/>
	</g>
	<path class="st4" d="M343.2,325.4c-1.3,9.6-2.1,23.6,0.9,40c3.9,21.1,12.5,36.8,18.5,45.9c-33.7-13.8-67.4-27.6-101.1-41.4
		c1.3-14,2.5-28.1,3.8-42.1L343.2,325.4z"/>
	<circle class="st3" cx="106.4" cy="133.3" r="15.5"/>
	<circle class="st5" cx="104.9" cy="133.8" r="9"/>
	<rect x="106.9" y="74.8" class="st3" width="103" height="211"/>
	<path class="st6" d="M183.9,155.8h-8.7c-4,0-7.3-3.3-7.3-7.3v-21.5c0-4,3.3-7.3,7.3-7.3h1.5c4,0,7.3,3.3,7.3,7.3L183.9,155.8
		L183.9,155.8z"/>
	<ellipse cx="155.9" cy="116.3" rx="11" ry="10.5"/>
	<ellipse cx="193.9" cy="116.3" rx="11" ry="10.5"/>
	<ellipse class="st6" cx="184.4" cy="143.8" rx="11.5" ry="12"/>
	<path class="st7" d="M164.7,109.6l-22.9,2.4c-4.4,0.5-8.3-2.7-8.8-7.1l0,0c-0.5-4.4,2.7-8.3,7.1-8.8l22.9-2.4
		c4.4-0.5,8.3,2.7,8.8,7.1l0,0C172.3,105.2,169.1,109.1,164.7,109.6z"/>
	<path class="st7" d="M205.3,110.7l-22.9-1.8c-4.4-0.3-7.7-4.2-7.4-8.6l0,0c0.3-4.4,4.2-7.7,8.6-7.4l22.9,1.8
		c4.4,0.3,7.7,4.2,7.4,8.6l0,0C213.5,107.8,209.7,111.1,205.3,110.7z"/>
	<ellipse class="st7" cx="111.4" cy="63.8" rx="25.5" ry="22"/>
	<ellipse class="st7" cx="152.4" cy="61.8" rx="25.5" ry="22"/>
	<ellipse class="st7" cx="189.4" cy="63.8" rx="25.5" ry="22"/>
	<ellipse class="st7" cx="201.4" cy="56.8" rx="25.5" ry="22"/>
	<path class="st7" d="M106.9,74.8h28.1c-4.6-4.3-11.3-7-18.6-7c-14.1,0-25.5,9.9-25.5,22c0,9.3,6.6,17.2,16,20.4V74.8z"/>
	<path class="st7" d="M209.9,87.9c3.1-3.7,5-8.2,5-13.1c0-12.1-11.4-22-25.5-22s-25.5,9.9-25.5,22h46V87.9z"/>
	<ellipse class="st7" cx="133.4" cy="41.8" rx="25.5" ry="22"/>
	<ellipse class="st7" cx="166.4" cy="41.8" rx="25.5" ry="22"/>
	<ellipse class="st7" cx="166.4" cy="32.8" rx="25.5" ry="22"/>
	<ellipse class="st7" cx="194.4" cy="41.8" rx="25.5" ry="22"/>
	<path class="st7" d="M115.9,117.8L115.9,117.8c-6.1,0-11-4.9-11-11v-28c0-6.1,4.9-11,11-11l0,0c6.1,0,11,4.9,11,11v28
		C126.9,112.9,122,117.8,115.9,117.8z"/>
	
		<rect x="163.9" y="430.9" transform="matrix(0.9978 -6.659866e-02 6.659866e-02 0.9978 -34.1492 13.2352)" class="st8" width="35" height="175.9"/>
	<path class="st2" d="M169,595.2C169,595.2,169,595.2,169,595.2l0.5,4.4c1.1,0.7,3.4,2.2,6.8,3.3c2,0.7,6.8,2.3,12.7,1.6
		c7.9-0.9,13.2-5.4,15.2-7.3c7.9,6.1,15.8,12.2,23.8,18.3c8.7,8.7,8.7,22.7,0,31.4l0,0c-8.7,8.7-22.7,8.7-31.4,0l-24.4-24.4
		c-1.2-1.2-2.3-2.6-3.2-4L169,595.2L169,595.2z"/>
	<g>
		<path class="st2" d="M64.2,300.2c0.2-2.9,0.3-5.8,0.5-8.7c-0.5,2.1-0.9,4.1-1.3,6.2C63.7,298.5,63.9,299.4,64.2,300.2z"/>
		<path class="st2" d="M249.8,342.1c0-14.7-0.4-29.5-0.2-44.2c-2-4.6-3.6-9.4-5.3-14.1c-1.8-5.1-4.3-10-7.2-16.2
			c-6.5-14.2-12.8-29.5-8.9-45.3c0.2-0.9,0.5-1.7,0.9-2.4c-6.1-2.6-12.5-4-19.2-4V229l-39.3,56c0,0-0.1,0-0.1,0l-63.6-56v-13.1h-4.5
			c-9.3,0-18.1,2.6-26.1,7.2c6.7-0.3,12.7,5.7,13.2,12.7c3.6,48.9-4.3,97.6-4.6,146.4c5.6,2.1,11.4,3.2,17.5,3.2h107
			c20.1,0,38.1-12.1,50-31.2C253.9,352.9,249.8,347.9,249.8,342.1z"/>
	</g>
	
		<rect x="37.9" y="501.6" transform="matrix(6.659866e-02 -0.9978 0.9978 6.659866e-02 -400.5483 610.1245)" class="st8" width="175.9" height="35"/>
	<path class="st9" d="M100.8,385.3c-0.2,0-0.3,0-0.5,0v39.1c0,9.9,8,17.9,17.9,17.9h69.3c9.9,0,17.9-8,17.9-17.9v-39.1H100.8z"/>
	<g>
		<path class="st10" d="M143.1,260.8L106.9,229v-13.1h-4.5c-7.9-0.6-19.2-0.3-29.7,5.8c-34.3,19.7-29.3,81.7-29.6,159.9
			C42.9,425.3,41,487.6,33,564.1c38.5,0.3,77,0.6,115.6,0.9C146.8,463.6,145,362.2,143.1,260.8z"/>
		<path class="st10" d="M209.9,215.8V229l-18.5,26.3h0.5c-1.9,103.2-3.8,206.5-5.8,309.7c17.5,4.4,82.1,19.1,106.4-11.9
			c10-12.8,8.4-27.3,5.5-58.7c-8.5-92.8-7.1-108.6-24.9-206.6c-5.3-29.4-10.9-57.7-32.9-68.6C229.4,213.8,218,214.4,209.9,215.8z"/>
	</g>
	<path class="st2" d="M78.9,448.5c6.3-6.8,16.6-19.6,23.1-38.5c6.6-19,6.3-35.5,5.5-44.8c-9.6,0-19.1,0-28.7,0V448.5z"/>
	<path class="st3" d="M32.9,358.8L32.9,358.8C25,356.3,20.6,347.9,23,340l26.4-84.9c2.5-7.9,10.9-12.3,18.8-9.9l0,0
		c7.9,2.5,12.3,10.9,9.9,18.8l-26.4,84.9C49.2,356.8,40.8,361.3,32.9,358.8z"/>
	<path class="st3" d="M127.5,399.1L127.5,399.1c-4.1,7.2-13.3,9.6-20.5,5.5l-77-44.5c-7.2-4.1-9.6-13.3-5.5-20.5l0,0
		c4.1-7.2,13.3-9.6,20.5-5.5l77,44.5C129.2,382.8,131.6,391.9,127.5,399.1z"/>
	<g>
		<path class="st4" d="M66.5,385.3l14.5-73.6c6.4-32.6,0-64.7-14.3-71.8l0,0c-14.3-7-31.1,13.7-37.6,46.3l-14.5,73.6L66.5,385.3z"/>
	</g>
	<path class="st11" d="M148.6,565.2c-3.6,0-7.4,0.1-11.1,0c-4,0-7.9-0.1-11.8-0.2c0.6-106.1,1.2-212.2,1.8-318.2
		c5.2,4.7,10.4,9.4,15.7,14.1C145,362.3,146.8,463.7,148.6,565.2z"/>
	<path class="st11" d="M207.6,569.5c-3.5-0.6-7.2-1.3-10.9-2.1c-3.6-0.8-7.1-1.6-10.5-2.4c1.8-103.2,3.5-206.5,5.3-309.7
		c4.7-6.6,9.3-13.3,14-19.9C206.2,346.7,206.9,458.1,207.6,569.5z"/>
	<path class="st7" d="M166.9,485.2c-17.6-61.8-32.6-133.9-39.6-214.9c-2.5-29.1-3.8-57.1-4.1-83.8c3.1-4.2,10.9-13.4,24.2-18.4
		c3.2-1.2,13-4.6,25.2-3.1c5.3,0.6,7.8,1.8,19.3,5.6c9.7,3.2,17.6,5.6,22.6,7c-0.4,21-1.4,42.6-3.1,64.8
		C204.7,333.4,187.7,414.9,166.9,485.2z"/>
	<path class="st12" d="M137.8,186.2c-0.1,1.4-0.2,2.8-0.2,4.2c0,21.6,14.7,39.2,32.9,39.2s32.9-17.5,32.9-39.2c0-2-0.1-4-0.4-5.9
		L137.8,186.2z"/>
	<path class="st13" d="M194.7,216.8c-1.2-7.9-7.1-14-14.3-14c-3.4,0-6.5,1.4-9,3.7c-2.3-1.7-5-2.7-8-2.7c-8,0-14.5,7.2-14.5,16
		c0,0,0,0.1,0,0.2c5.8,6,13.3,9.6,21.5,9.6C180.1,229.6,188.7,224.6,194.7,216.8z"/>
	<path class="st14" d="M203.3,190.4c0-2-0.1-4-0.4-5.9l-65.1,1.7c-0.1,1.4-0.2,2.8-0.2,4.2c0,1.7,0.1,3.3,0.3,4.9
		c10.6,0.5,22,0.6,33.9,0.4c11-0.3,21.5-0.8,31.4-1.7C203.3,192.6,203.3,191.4,203.3,190.4z"/>
	<path class="st14" d="M220.4,188.6"/>
	<path class="st2" d="M138.2,595.5C138.2,595.5,138.2,595.5,138.2,595.5l-0.5,4.4c-1.1,0.7-3.4,2.2-6.8,3.3c-2,0.7-6.8,2.3-12.7,1.6
		c-7.9-0.9-13.2-5.4-15.2-7.3c-7.9,6.1-15.8,12.2-23.8,18.3c-8.7,8.7-8.7,22.7,0,31.4l0,0c8.7,8.7,22.7,8.7,31.4,0l24.4-24.4
		c1.2-1.2,2.3-2.6,3.2-4L138.2,595.5L138.2,595.5z"/>
	<path class="st15" d="M89.7,583.7"/>
	<circle class="st3" cx="375.9" cy="341" r="24.6"/>
	<path class="st4" d="M107.5,365.2c-6.2,7.5-14.2,19-20.3,34.5c-7.8,20.1-8.7,37.9-8.4,48.8c-21.4-29.5-42.8-58.9-64.2-88.4
		c8.5-11.3,16.9-22.6,25.4-33.8L107.5,365.2z"/>
	<path class="st10" d="M332.9,480.6"/>
	<path class="st10" d="M-7.3,507.2"/>
	<path class="st10" d="M0,565.9"/>
	<path class="st11" d="M103.9,253.9"/>
	<circle class="st3" cx="121.9" cy="395.6" r="24.6"/>
	<path class="st11" d="M59.8,422.2c6.4,8.8,12.7,17.5,19.1,26.3c-0.3-10.3,0.5-26.7,7.2-45.4c6.2-17.5,15.1-30.2,21.5-37.9
		c-4.7-2.7-9.4-5.4-14.1-8.1c-6.1,6.2-13.7,15.3-20.4,27.5C65.1,399.2,61.5,412.7,59.8,422.2z"/>
	<path class="st11" d="M362.7,411.3c-7.2-2.9-14.3-5.9-21.5-8.8c-4.8-6.2-14.6-20.4-17.1-41.1c-1.9-15.7,1.1-28.4,3.4-35.5
		c5.3-0.2,10.5-0.3,15.8-0.5c-1.4,10.3-2.4,27.1,2.4,46.8C349.9,389.8,357.2,403,362.7,411.3z"/>
	<circle class="st16" cx="389.9" cy="156.6" r="31.3"/>
	
		<ellipse transform="matrix(6.385984e-02 -0.998 0.998 6.385984e-02 179.0998 559.3222)" class="st17" cx="387.7" cy="184.2" rx="11.9" ry="28.8"/>
</g>
</svg>
