<?xml version="1.0" encoding="utf-8"?>
<!-- Generator: Adobe Illustrator 24.1.2, SVG Export Plug-In . SVG Version: 6.00 Build 0)  -->
<svg version="1.1" xmlns="http://www.w3.org/2000/svg" xmlns:xlink="http://www.w3.org/1999/xlink" x="0px" y="0px"
	 viewBox="0 0 2560 1600" style="enable-background:new 0 0 2560 1600;" xml:space="preserve">
<style type="text/css">
	.st0{fill:#9AD8D7;}
	.st1{fill:#DEF4F4;}
	.st2{fill:#E3F5F3;}
	.st3{fill:#FFFFFF;}
	.st4{fill:#804B19;}
	.st5{fill:#B26F2B;}
	.st6{fill:#3D8B37;}
	.st7{fill:#57A635;}
	.st8{fill:#84C527;}
	.st9{fill:#57341E;}
	.st10{fill:#3E2621;}
	.st11{fill:#91C023;}
	.st12{fill:#B5D617;}
	.st13{fill:#6EA92E;}
	.st14{fill:#EEDAAA;}
	.st15{fill:#CEB98D;}
</style>
<g id="Слой_1">
	<g id="Слой_2_1_">
		<rect class="st0" width="2560" height="1600"/>
		<path class="st1" d="M2558,837.8c-89.3,18.7-164.9,74.4-210.1,150.3c-14.7-2.1-29.7-3.2-44.9-3.2c-108.7,0-204.8,54-262.8,136.7
			c-41.6-19.7-88.1-30.7-137.2-30.7c-108.8,0-205,54.2-263.1,137c-43.3-21.8-92.2-34-143.9-34c-65,0-125.4,19.3-175.9,52.5
			c-56.2-93.2-158.3-155.5-275.1-155.5c-106.7,0-201.2,52-259.5,132.1c-55.1-44.5-125.2-71.1-201.5-71.1
			c-97.7,0-185.1,43.6-244,112.4c-29.3-34.2-65.6-62.2-106.8-81.7c5.1-22.8,7.8-46.4,7.8-70.7c0-149.7-102.4-275.4-241-311v799
			h2163.2c0.9-1.2,1.8-2.5,2.6-3.7c2.7,1.3,5.4,2.5,8.2,3.7h384V837.8z"/>
		<path class="st2" d="M1559.8,266c0.1-1,0.2-2,0.2-3c0-30.9-68.1-56-152-56c-83.7,0-151.6,24.9-152,55.7
			c-44.2,2.6-82,12.2-104.8,25.6c-77,2.7-137.2,26.6-137.2,55.7c0,30.9,68,56,152,56c18.9,0,37-1.3,53.7-3.6
			c23.5,19.8,77,33.6,139.3,33.6c83,0,150.5-24.5,152-55c0,0,0,0,0,0c83.9,0,152-25.1,152-56C1663,294.4,1619.8,273.4,1559.8,266z"
			/>
		<path class="st3" d="M2203.4,548.2c0.2-1.1,0.2-2.3,0.2-3.4c0-35.8-78.7-64.8-175.9-64.8c-96.8,0-175.3,28.8-175.8,64.4
			c-51.1,3-94.8,14.1-121.3,29.6c-89.1,3.2-158.7,30.8-158.7,64.5c0,35.8,78.7,64.8,175.9,64.8c21.9,0,42.8-1.5,62.1-4.2
			c27.1,22.9,89.1,38.9,161.2,38.9c96.1,0,174.1-28.4,175.8-63.6c0,0,0,0,0,0c97.1,0,175.9-29,175.9-64.8
			C2322.9,581.1,2272.9,556.9,2203.4,548.2z"/>
		<path class="st3" d="M609.7,339.4c0.1-0.6,0.1-1.3,0.1-1.9c0-20.1-44.2-36.4-98.8-36.4c-54.4,0-98.5,16.2-98.8,36.2
			c-28.7,1.7-53.3,7.9-68.1,16.6c-50,1.8-89.1,17.3-89.1,36.2c0,20.1,44.2,36.4,98.8,36.4c12.3,0,24-0.8,34.9-2.3
			c15.2,12.9,50,21.8,90.5,21.8c54,0,97.8-15.9,98.8-35.7c0,0,0,0,0,0c54.5,0,98.8-16.3,98.8-36.4
			C676.7,357.9,648.7,344.3,609.7,339.4z"/>
		<path class="st2" d="M924.2,740.9c0.1-0.8,0.2-1.7,0.2-2.6c0-26.9-59.2-48.8-132.3-48.8c-72.8,0-131.9,21.7-132.3,48.5
			c-38.4,2.3-71.4,10.6-91.3,22.3c-67,2.4-119.4,23.2-119.4,48.5c0,26.9,59.2,48.8,132.3,48.8c16.5,0,32.2-1.1,46.7-3.1
			c20.4,17.2,67,29.3,121.3,29.3c72.3,0,131-21.4,132.3-47.9c0,0,0,0,0,0c73.1,0,132.3-21.8,132.3-48.8
			C1014,765.7,976.4,747.4,924.2,740.9z"/>
		<path class="st3" d="M1594.2,879.6c0.1-0.7,0.1-1.3,0.1-2c0-20.5-45.2-37.2-100.9-37.2c-55.5,0-100.6,16.5-100.9,37
			c-29.3,1.7-54.4,8.1-69.6,17c-51.1,1.8-91.1,17.7-91.1,37c0,20.5,45.2,37.2,100.9,37.2c12.5,0,24.5-0.8,35.6-2.4
			c15.6,13.1,51.1,22.3,92.5,22.3c55.1,0,99.9-16.3,100.9-36.5c0,0,0,0,0,0c55.7,0,100.9-16.6,100.9-37.2
			C1662.7,898.5,1634.1,884.6,1594.2,879.6z"/>
	</g>
</g>
<g id="Слой_2">
	<g id="Слой_2_2_">
		<path class="st4" d="M2465.5,609.5c5.1-17.8,10-41.6,11-70c1-28.1-2.2-52-6-70c-11.4-76-35.1-127.6-55-161
			c-12.2-20.5-25.2-37.8-48-77c-22.5-38.6-38.7-71.3-49-93c-20.3,1.7-40.7,3.3-61,5c11.3,14.6,27.4,37,44,66
			c8.8,15.4,30.9,55.6,66,163c24.8,75.6,22.2,81.3,39,123C2426.9,546.1,2449.6,584.9,2465.5,609.5z"/>
		<path class="st4" d="M2469.5,532.5c3.2,19.8,5.5,43,5,69c-0.8,47.6-10.4,87.3-20,116c-52.4-100.3-109.7-173-153-221
			c-87.3-96.9-174.1-156.5-249-208c-59.9-41.2-112.3-72-150.1-92.9c13.9-17.9,27.9-35.7,41.9-53.6
			c85.4,64.7,157.8,111.3,207.2,141.5c88.5,54,150.4,84,227,153C2420.6,474.5,2451,509.6,2469.5,532.5z"/>
		<path class="st5" d="M2403.5,1634.5c52.7,0,105.3,0,158,0v-1531h-122.3c30.4,183.3,33.1,330.8,30.3,429
			c-4.9,176.2-27,199.1-33,416c-4.7,168.7,7,212.6-1,376C2428.9,1457.8,2414.4,1565.7,2403.5,1634.5z"/>
		<path class="st4" d="M2468.5,1634.5c31,0,62,0,93,0v-1531h-72c17.9,183.3,19.5,330.8,17.9,429c-2.9,176.2-15.9,199.1-19.4,416
			c-2.7,168.7,4.1,212.6-0.6,376C2483.5,1457.8,2474.9,1565.7,2468.5,1634.5z"/>
		<path class="st5" d="M2425.5,512.5c4.5-50.7,0.5-91.3-4-119c-2.9-17.8-5.4-32-9-43c-29.1-88.5-28.8-89.6-35-102
			c-9.4-19-10.3-16.5-29-51c-13.3-24.4-23.4-45-30-59c-20.3,1.7-40.7,3.3-61,5c31.1,22.9,49.4,46.7,60,63c14.7,22.7,21.9,42.8,35,79
			c13.9,38.6,22.8,68.3,25,76C2387.7,396.6,2403.2,447.4,2425.5,512.5z"/>
		<path class="st5" d="M2425.5,512.5c-33.9-45-65.9-76.8-88-97c-44.7-40.7-70-53-242-167c-14.1-9.4-41-27.2-76-52
			c-32.2-22.8-58-42.1-75-55c-14,18-28,36-42,54c28.3,7.8,52.8,16.8,73.6,25.7c1.8,0.8,26.5,11.4,51.4,25.3
			c78.7,43.8,186.1,134.2,286,200C2337,462,2375.3,486.1,2425.5,512.5z"/>
		<path class="st6" d="M1613.5,215.5c0-76.9,84.4-139.5,189.2-141c33.1-19.4,75.1-31,120.8-31c37.4,0,72.3,7.8,101.9,21.3
			c35.1-26.7,84.4-43.3,139.1-43.3c45.1,0,86.6,11.3,119.5,30.3c32.9-19,74.4-30.3,119.5-30.3c78.1,0,145.3,33.9,175.7,82.6
			c98.3,6.5,175.3,66.9,175.3,140.4c0,77.9-86.4,141-193,141c-78.1,0-145.3-33.9-175.7-82.6c-38.3-2.5-73.3-13.2-101.8-29.7
			c-32.9,19-74.4,30.3-119.5,30.3c-0.8,0-1.6,0-2.4,0c1.5,7.2,2.4,14.5,2.4,22c0,77.9-86.4,141-193,141
			c-92.5,0-169.8-47.6-188.6-111C1687.4,346.9,1613.5,287.5,1613.5,215.5z"/>
		<path class="st7" d="M1617.5,122.5c0-76.9,84.4-139.5,189.2-141c33.1-19.4,75.1-31,120.8-31c37.4,0,72.3,7.8,101.9,21.3
			c35.1-26.7,84.4-43.3,139.1-43.3c45.1,0,86.6,11.3,119.5,30.3c32.9-19,74.4-30.3,119.5-30.3c78.1,0,145.3,33.9,175.7,82.6
			c98.3,6.5,175.3,66.9,175.3,140.4c0,77.9-86.4,141-193,141c-78.1,0-145.3-33.9-175.7-82.6c-38.3-2.5-73.3-13.2-101.8-29.7
			c-32.9,19-74.4,30.3-119.5,30.3c-0.8,0-1.6,0-2.4,0c1.5,7.2,2.4,14.5,2.4,22c0,77.9-86.4,141-193,141
			c-92.5,0-169.8-47.6-188.6-111C1691.4,253.9,1617.5,194.5,1617.5,122.5z"/>
		<path class="st8" d="M1648.5,99.4c0-67.8,74.3-122.9,166.7-124.2c29.1-17.1,66.1-27.3,106.4-27.3c33,0,63.7,6.9,89.8,18.7
			c30.9-23.5,74.4-38.1,122.5-38.1c39.8,0,76.3,10,105.3,26.7c29-16.7,65.5-26.7,105.3-26.7c68.8,0,128,29.8,154.8,72.8
			c86.6,5.8,154.4,58.9,154.4,123.7c0,68.6-76.1,124.2-170,124.2c-68.8,0-128-29.8-154.8-72.8c-33.7-2.2-64.6-11.6-89.7-26.1
			c-28.9,16.7-65.5,26.7-105.3,26.7c-0.7,0-1.4,0-2.1,0c1.4,6.3,2.1,12.8,2.1,19.4c0,68.6-76.1,124.2-170,124.2
			c-81.5,0-149.6-41.9-166.2-97.8C1713.6,215.2,1648.5,162.8,1648.5,99.4z"/>
		<path class="st9" d="M92.5,522.5c-5.1-17.8-10-41.6-11-70c-1-28.1,2.2-52,6-70c11.4-76,35.1-127.6,55-161
			c12.2-20.6,25.2-37.8,48-77c22.5-38.6,38.7-71.3,49-93c20.3,1.7,40.7,3.3,61,5c-11.3,14.7-27.4,37-44,66
			c-8.8,15.4-30.9,55.6-66,163c-24.8,75.6-22.2,81.3-39,123C131.1,459.1,108.4,497.9,92.5,522.5z"/>
		<path class="st9" d="M88.5,445.5c-3.2,19.8-5.5,43-5,69c0.8,47.6,10.4,87.3,20,116c52.4-100.3,109.7-173,153-221
			c87.3-96.9,174.1-156.6,249-208c59.9-41.2,112.3-72,150.1-92.9c-14-17.9-27.9-35.7-41.9-53.6c-85.4,64.7-157.8,111.3-207.2,141.5
			c-88.5,54.1-150.4,84-227,153C137.4,387.5,107,422.6,88.5,445.5z"/>
		<path class="st10" d="M154.5,1547.5c-52.7,0-105.3,0-158,0V16.5h122.3c-30.4,183.3-33.1,330.8-30.3,429c4.9,176.2,27,199.1,33,416
			c4.7,168.7-7,212.6,1,376C129.1,1370.8,143.6,1478.7,154.5,1547.5z"/>
		<path class="st9" d="M89.5,1547.5c-31,0-62,0-93,0V16.5h72C50.6,199.8,49,347.3,50.7,445.5c2.9,176.2,15.9,199.1,19.4,416
			c2.7,168.7-4.1,212.6,0.6,376C74.5,1370.8,83.1,1478.7,89.5,1547.5z"/>
		<path class="st11" d="M2556.5,1616.5H-3.5c0-35,0-70,0-105c346.8-71,776.3-130.3,1270-136c501.3-5.7,938.1,45.4,1290,110
			C2556.5,1529.2,2556.5,1572.8,2556.5,1616.5z"/>
		<path class="st12" d="M1302.3,1375.3c50,1.8,251.6,10.6,473.2,99.2c47.1,18.8,70,31.2,69,44c-3.4,45-301.3,82.3-589,52
			c-205.3-21.6-222-58.3-433-68c-191.2-8.7-341.6,13.9-344-2c-2.4-15.5,138.5-48.7,165-55C782,1412.8,994.2,1364.4,1302.3,1375.3z"
			/>
		<path class="st4" d="M141.5,346.5c-2.7-9.3-5.6-23.2-5-40c0.6-17.5,4.7-30,9-43c29.1-88.5,28.8-89.6,35-102
			c9.4-19,10.3-16.5,29-51c13.3-24.4,23.4-45,30-59c20.3,1.7,40.7,3.3,61,5c-31.1,22.9-49.4,46.7-60,63c-14.7,22.7-21.9,42.8-35,79
			c-14.3,39.7-13.8,48.3-25,76C167.4,307.1,152,331.5,141.5,346.5z"/>
		<path class="st4" d="M227.5,348.5c34.5-39.9,65.9-67.7,87-85c12.2-10,21.3-16.8,148-102c33-22.2,50.2-33.7,76-52
			c32.2-22.8,58-42.1,75-55c14,18,28,36,42,54c-56.5,15.6-98.1,35.9-125,51c-89.4,50.2-118.5,100.3-217,152
			C277.8,330.3,246.9,341.9,227.5,348.5z"/>
		<path class="st4" d="M534.5,216.5"/>
		<path class="st13" d="M944.5,128.5c0-76.9-84.4-139.5-189.2-141c-33.1-19.4-75.1-31-120.8-31c-37.4,0-72.3,7.8-101.9,21.3
			c-35.1-26.7-84.4-43.3-139.1-43.3c-45.1,0-86.6,11.3-119.5,30.3c-32.9-19-74.4-30.3-119.5-30.3C76.4-65.5,9.2-31.6-21.2,17.1
			c-98.3,6.5-175.3,66.9-175.3,140.4c0,77.9,86.4,141,193,141c78.1,0,145.3-33.9,175.7-82.6c38.3-2.5,73.3-13.2,101.8-29.7
			c32.9,19,74.4,30.3,119.5,30.3c0.8,0,1.6,0,2.4,0c-1.5,7.2-2.4,14.5-2.4,22c0,77.9,86.4,141,193,141c92.5,0,169.8-47.6,188.6-111
			C870.6,259.9,944.5,200.5,944.5,128.5z"/>
		<path class="st11" d="M940.5,35.5c0-76.9-84.4-139.5-189.2-141c-33.1-19.4-75.1-31-120.8-31c-37.4,0-72.3,7.8-101.9,21.3
			c-35.1-26.7-84.4-43.3-139.1-43.3c-45.1,0-86.6,11.3-119.5,30.3c-32.9-19-74.4-30.3-119.5-30.3c-78.1,0-145.3,33.9-175.7,82.6
			C-123.5-69.4-200.5-9-200.5,64.5c0,77.9,86.4,141,193,141c78.1,0,145.3-33.9,175.7-82.6c38.3-2.5,73.3-13.2,101.8-29.7
			c32.9,19,74.4,30.3,119.5,30.3c0.8,0,1.6,0,2.4,0c-1.5,7.2-2.4,14.5-2.4,22c0,77.9,86.4,141,193,141
			c92.5,0,169.8-47.6,188.6-111.1C866.6,166.9,940.5,107.5,940.5,35.5z"/>
		<ellipse class="st8" cx="1966.5" cy="1360.5" rx="122" ry="79"/>
		<path class="st6" d="M2344.5,1343.5c0-34-33.3-63.1-79.9-74.2c2.5-6.3,3.9-13,3.9-19.8c0-43.6-54.6-79-122-79
			c-49.2,0-91.6,18.9-110.9,46c-48,0.7-89.2,19.4-108.1,46.1c-64.6,2-116.1,36.6-116.1,78.9c0,41.4,49.1,75.3,111.6,78.7
			c16.5,31,61.9,53.3,115.4,53.3c17.6,0,34.3-2.4,49.3-6.7c21.5,12.3,49.7,19.7,80.7,19.7c66.6,0,120.6-34.5,122-77.4
			C2323.1,1394.9,2344.5,1370.8,2344.5,1343.5z"/>
		<path class="st7" d="M2282.7,1376.4c0-26.2-25.6-48.5-61.4-57c1.9-4.9,3-10,3-15.2c0-33.5-42-60.7-93.8-60.7
			c-37.8,0-70.4,14.5-85.2,35.4c-36.9,0.6-68.5,14.9-83,35.4c-49.7,1.5-89.2,28.1-89.2,60.6c0,31.8,37.7,57.9,85.8,60.5
			c12.7,23.8,47.6,40.9,88.7,40.9c13.5,0,26.3-1.9,37.9-5.2c16.5,9.4,38.2,15.2,62,15.2c51.1,0,92.7-26.5,93.7-59.5
			C2266.2,1416,2282.7,1397.5,2282.7,1376.4z"/>
		<path class="st7" d="M2646.5,1418.5c0-34-33.3-63.1-79.9-74.2c2.5-6.3,3.9-13,3.9-19.8c0-43.6-54.6-79-122-79
			c-49.2,0-91.6,18.9-110.9,46c-48,0.7-89.2,19.4-108.1,46.1c-64.6,2-116.1,36.6-116.1,78.9c0,41.4,49.1,75.3,111.6,78.7
			c16.5,31,61.9,53.3,115.4,53.3c17.6,0,34.3-2.4,49.3-6.7c21.5,12.3,49.7,19.7,80.7,19.7c66.6,0,120.6-34.5,122-77.4
			C2625.1,1469.9,2646.5,1445.8,2646.5,1418.5z"/>
		<path class="st8" d="M2584.7,1451.4c0-26.2-25.6-48.5-61.4-57c1.9-4.9,3-10,3-15.2c0-33.5-42-60.7-93.8-60.7
			c-37.8,0-70.4,14.5-85.2,35.4c-36.9,0.6-68.5,14.9-83,35.4c-49.7,1.5-89.2,28.1-89.2,60.6c0,31.8,37.7,57.9,85.8,60.5
			c12.7,23.8,47.6,40.9,88.7,40.9c13.5,0,26.3-1.9,37.9-5.2c16.5,9.4,38.2,15.2,62,15.2c51.1,0,92.7-26.5,93.7-59.5
			C2568.2,1491,2584.7,1472.5,2584.7,1451.4z"/>
		<path class="st6" d="M2266.5,1459.9c0-21.3-20.8-39.5-50.1-46.5c1.6-4,2.4-8.1,2.4-12.4c0-27.3-34.2-49.5-76.4-49.5
			c-30.8,0-57.4,11.8-69.5,28.8c-30.1,0.4-55.9,12.2-67.7,28.9c-40.5,1.3-72.7,22.9-72.7,49.4c0,25.9,30.8,47.2,69.9,49.3
			c10.3,19.4,38.8,33.4,72.3,33.4c11,0,21.5-1.5,30.9-4.2c13.5,7.7,31.2,12.4,50.5,12.4c41.7,0,75.6-21.6,76.4-48.5
			C2253,1492.1,2266.5,1477,2266.5,1459.9z"/>
		<path class="st7" d="M2227.7,1480.5c0-16.4-16-30.4-38.5-35.7c1.2-3.1,1.9-6.3,1.9-9.6c0-21-26.3-38-58.8-38
			c-23.7,0-44.1,9.1-53.4,22.2c-23.1,0.3-42.9,9.3-52,22.2c-31.1,1-55.9,17.6-55.9,38c0,19.9,23.6,36.3,53.7,37.9
			c7.9,14.9,29.8,25.7,55.6,25.7c8.5,0,16.5-1.2,23.8-3.2c10.4,5.9,23.9,9.5,38.8,9.5c32,0,58.1-16.6,58.7-37.3
			C2217.4,1505.3,2227.7,1493.7,2227.7,1480.5z"/>
		<path class="st6" d="M174.8,1409.2c0-28.7,28-53.1,67.3-62.4c-2.1-5.3-3.3-10.9-3.3-16.7c0-36.7,46-66.5,102.7-66.5
			c41.4,0,77.1,15.9,93.4,38.8c40.4,0.6,75.1,16.3,91,38.8c54.4,1.7,97.7,30.8,97.7,66.4c0,34.8-41.3,63.4-94,66.3
			c-13.9,26.1-52.1,44.9-97.1,44.9c-14.8,0-28.8-2-41.5-5.7c-18.1,10.3-41.9,16.6-67.9,16.6c-56,0-101.6-29.1-102.7-65.2
			C192.8,1452.4,174.8,1432.2,174.8,1409.2z"/>
		<path class="st7" d="M226.8,1436.9c0-22,21.5-40.8,51.7-48c-1.6-4.1-2.5-8.4-2.5-12.8c0-28.2,35.3-51.1,78.9-51.1
			c31.8,0,59.3,12.2,71.7,29.8c31.1,0.5,57.7,12.6,69.9,29.8c41.8,1.3,75.1,23.7,75.1,51.1c0,26.8-31.8,48.7-72.2,50.9
			c-10.7,20.1-40.1,34.5-74.6,34.5c-11.4,0-22.2-1.6-31.9-4.4c-13.9,7.9-32.2,12.8-52.2,12.8c-43.1,0-78.1-22.3-78.9-50.1
			C240.7,1470.2,226.8,1454.6,226.8,1436.9z"/>
		<path class="st7" d="M-79.5,1472.3c0-28.7,28-53.1,67.3-62.4c-2.1-5.3-3.3-10.9-3.3-16.7c0-36.7,46-66.5,102.7-66.5
			c41.4,0,77.1,15.9,93.4,38.8c40.4,0.6,75.1,16.3,91,38.8c54.4,1.7,97.7,30.8,97.7,66.4c0,34.8-41.3,63.4-94,66.3
			c-13.9,26.1-52.1,44.9-97.1,44.9c-14.8,0-28.8-2-41.5-5.7c-18.1,10.3-41.9,16.6-67.9,16.6c-56,0-101.6-29.1-102.7-65.1
			C-61.5,1515.6-79.5,1495.3-79.5,1472.3z"/>
		<path class="st8" d="M-27.5,1500c0-22,21.5-40.8,51.7-48c-1.6-4.1-2.5-8.4-2.5-12.8c0-28.2,35.3-51.1,78.9-51.1
			c31.8,0,59.3,12.2,71.7,29.8c31.1,0.5,57.7,12.6,69.9,29.8c41.8,1.3,75.1,23.7,75.1,51.1c0,26.8-31.8,48.7-72.2,50.9
			c-10.7,20.1-40.1,34.5-74.6,34.5c-11.4,0-22.2-1.6-31.9-4.4c-13.9,7.9-32.2,12.8-52.2,12.8c-43.1,0-78.1-22.3-78.9-50.1
			C-13.6,1533.3-27.5,1517.7-27.5,1500z"/>
		<path class="st6" d="M240.4,1507.2c0-18,17.5-33.3,42.1-39.1c-1.3-3.3-2-6.8-2-10.5c0-23,28.8-41.7,64.4-41.7
			c26,0,48.3,9.9,58.5,24.3c25.3,0.4,47,10.2,57,24.3c34.1,1.1,61.2,19.3,61.2,41.6c0,21.8-25.9,39.7-58.9,41.5
			c-8.7,16.4-32.7,28.1-60.9,28.1c-9.3,0-18.1-1.3-26-3.6c-11.3,6.5-26.2,10.4-42.5,10.4c-35.1,0-63.6-18.2-64.3-40.8
			C251.8,1534.3,240.4,1521.6,240.4,1507.2z"/>
		<path class="st7" d="M273.1,1524.5c0-13.8,13.5-25.6,32.4-30.1c-1-2.6-1.6-5.3-1.6-8c0-17.7,22.1-32,49.5-32
			c20,0,37.1,7.6,45,18.7c19.5,0.3,36.1,7.9,43.8,18.7c26.2,0.8,47,14.8,47,32c0,16.8-19.9,30.5-45.3,31.9
			c-6.7,12.6-25.1,21.6-46.8,21.6c-7.1,0-13.9-1-20-2.7c-8.7,5-20.2,8-32.7,8c-27,0-48.9-14-49.5-31.4
			C281.8,1545.4,273.1,1535.6,273.1,1524.5z"/>
		<path class="st5" d="M2227.5,1564.5h-849v-182h849c6.9,8,35.5,42.9,34,95C2260.1,1524.6,2235,1555.8,2227.5,1564.5z"/>
		<ellipse class="st14" cx="1380" cy="1473.5" rx="65.5" ry="91"/>
		<path class="st5" d="M2209.5,1464.5"/>
		<path class="st4" d="M1378.5,1495.5v69h849c6.5-7.6,26.2-32,32.3-69c-191.9,6.2-337.7-1.4-438.3-10c-52.9-4.5-155.2-14.7-293-6
			C1465.3,1483.5,1413.4,1490.2,1378.5,1495.5z"/>
		<path class="st15" d="M1445.5,1473.5c0-11.5-1.5-22.4-4.3-32.5c-11.8-16.4-28.2-26.5-46.2-26.5c-36.2,0-65.5,40.7-65.5,91
			c0,11.5,1.5,22.4,4.3,32.5c11.8,16.4,28.2,26.5,46.2,26.5C1416.2,1564.5,1445.5,1523.8,1445.5,1473.5z"/>
	</g>
</g>
</svg>
